<?xml version="1.0" standalone="no"?>
<!DOCTYPE svg PUBLIC "-//W3C//DTD SVG 20010904//EN"
 "http://www.w3.org/TR/2001/REC-SVG-20010904/DTD/svg10.dtd">
<svg version="1.0" xmlns="http://www.w3.org/2000/svg"
 width="512.000000pt" height="512.000000pt" viewBox="0 0 512.000000 512.000000"
 preserveAspectRatio="xMidYMid meet">

<g transform="translate(0.000000,512.000000) scale(0.100000,-0.100000)"
fill="#000000" stroke="none">
<path d="M2341 4514 c-24 -32 -39 -43 -50 -38 -9 4 -41 9 -71 11 l-55 5 -100
-96 c-55 -53 -97 -96 -93 -96 3 0 35 27 70 61 104 100 115 106 181 101 31 -2
57 -7 57 -12 0 -9 -65 -50 -158 -99 -13 -7 -22 -15 -19 -17 2 -3 46 18 96 45
81 44 94 48 109 36 45 -36 112 -83 165 -115 31 -19 57 -38 57 -42 0 -4 20 -16
45 -27 25 -11 45 -24 45 -29 0 -6 -12 -23 -27 -39 -16 -17 -35 -42 -43 -58 -8
-15 -33 -46 -56 -69 -23 -23 -53 -59 -66 -81 -26 -41 -88 -123 -174 -227 -26
-32 -54 -58 -63 -59 -10 0 -12 -2 -3 -6 8 -3 2 -18 -20 -49 -17 -24 -35 -44
-38 -44 -15 0 -32 29 -24 41 5 8 3 9 -5 4 -12 -7 -61 30 -61 47 0 4 11 8 25 8
14 0 25 5 25 10 0 6 9 10 20 10 13 0 20 7 20 20 0 18 -4 17 -47 -10 -26 -17
-50 -30 -55 -30 -4 0 -28 15 -52 33 -49 35 -57 66 -35 124 6 15 12 48 14 72 2
32 9 50 26 64 13 10 19 16 13 13 -15 -7 -25 17 -14 34 6 10 8 10 12 -1 3 -9 6
-10 11 -2 4 6 0 18 -8 27 -21 20 -20 17 -5 46 7 13 14 38 15 55 2 16 6 56 10
89 7 52 12 61 42 78 40 24 37 37 -4 14 -15 -8 -58 -29 -96 -45 -67 -30 -67
-31 -103 -108 -56 -122 -146 -354 -140 -360 3 -3 8 3 12 13 4 10 33 81 65 156
33 76 68 162 80 192 17 46 26 58 63 75 23 12 47 21 53 21 6 0 14 6 17 13 3 6
4 0 1 -14 -2 -14 -7 -44 -10 -65 -4 -21 -15 -77 -25 -124 -10 -47 -29 -136
-41 -198 -16 -77 -28 -113 -39 -117 -15 -4 -98 -7 -158 -6 -30 1 -33 4 -27 24
5 20 5 20 -9 -3 -22 -36 -21 -43 29 -148 l45 -96 -70 -104 c-84 -123 -83 -60
-6 -516 l52 -309 155 -78 c140 -70 161 -84 206 -136 l49 -58 48 -226 49 -225
-78 -135 c-47 -80 -101 -157 -134 -192 -55 -56 -58 -58 -214 -110 -115 -37
-162 -58 -169 -72 -6 -11 -44 -72 -85 -136 l-74 -116 -15 -297 c-9 -163 -14
-300 -10 -303 8 -8 273 -73 563 -137 219 -49 251 -58 270 -81 13 -14 23 -33
23 -41 0 -8 2 -14 5 -14 9 0 526 173 730 245 l190 66 210 -10 c116 -6 280 -13
367 -15 152 -4 157 -4 177 18 l22 23 -30 364 c-17 200 -35 436 -40 523 -8 136
-12 162 -27 173 -10 7 -111 50 -224 94 -113 44 -214 89 -225 98 -11 10 -107
80 -212 156 -106 75 -193 142 -193 149 0 6 -25 63 -55 126 -48 99 -55 120 -50
155 13 85 107 541 116 556 6 12 35 20 101 28 51 7 97 16 102 21 4 4 44 93 87
196 52 124 77 195 73 208 -3 12 -17 33 -31 47 l-24 26 39 59 c22 32 42 69 46
81 6 17 -13 66 -71 190 -44 93 -86 182 -94 200 -8 17 -84 105 -169 195 -85 90
-183 194 -218 232 l-63 68 -237 24 c-130 13 -241 24 -247 24 -5 -1 -25 -21
-44 -46z m224 12 c250 -25 275 -29 275 -36 0 -4 -20 -4 -44 0 -38 6 -66 0 -86
-17 -2 -2 2 -8 10 -13 11 -7 12 -10 2 -10 -7 0 -10 -5 -6 -12 4 -7 3 -8 -4 -4
-28 17 -9 -21 21 -41 17 -13 26 -23 19 -23 -6 0 -12 -6 -12 -13 0 -8 -8 -21
-18 -30 -16 -15 -20 -15 -47 3 -26 17 -27 20 -9 20 11 0 25 -5 32 -12 6 -6 14
-9 17 -6 3 3 -9 15 -27 28 -18 12 -26 20 -18 17 8 -2 24 -1 35 3 18 7 16 9
-15 23 -19 8 -28 16 -19 16 17 1 32 24 23 34 -3 3 -18 -2 -34 -9 -26 -13 -31
-13 -49 3 -32 27 -26 32 34 28 44 -3 55 -1 55 11 0 8 -4 13 -8 10 -5 -3 -51 1
-103 8 -52 8 -96 12 -98 10 -2 -2 2 -10 9 -19 10 -12 10 -15 -3 -15 -9 0 -17
10 -19 22 -2 12 -9 24 -17 26 -10 3 -12 0 -8 -12 7 -17 -17 -23 -28 -7 -3 6
-14 9 -25 8 -14 -1 -16 -4 -8 -14 7 -9 7 -13 -1 -13 -6 0 -11 -7 -11 -15 0
-14 -32 -16 -46 -3 -11 11 50 78 66 73 8 -2 83 -11 165 -19z m-225 -90 c-13
-13 -35 7 -25 24 5 8 11 8 21 -1 10 -8 12 -15 4 -23z m474 8 c-15 -22 -19 -23
-32 -11 -19 19 -10 32 22 35 26 2 26 1 10 -24z m-54 6 c0 -5 -2 -10 -4 -10 -3
0 -8 5 -11 10 -3 6 -1 10 4 10 6 0 11 -4 11 -10z m169 -53 c-2 -2 -17 12 -33
32 l-30 36 34 -32 c19 -18 32 -34 29 -36z m-457 33 c16 -15 18 -20 7 -20 -16
0 -39 19 -39 32 0 13 9 9 32 -12z m112 -21 c7 -7 -14 -7 -56 0 -5 0 -8 8 -8
16 0 12 5 13 28 3 15 -7 31 -15 36 -19z m-174 -5 c0 -2 -9 0 -20 6 -11 6 -20
13 -20 16 0 2 9 0 20 -6 11 -6 20 -13 20 -16z m361 1 c-2 -17 -36 -11 -39 7
-3 14 1 16 18 10 12 -4 21 -12 21 -17z m-234 -95 c6 0 14 -7 17 -16 6 -15 4
-15 -16 -2 -13 8 -47 30 -75 47 -29 18 -53 37 -53 42 0 6 26 -8 58 -30 32 -23
63 -41 69 -41z m296 45 c7 -18 -9 -30 -16 -13 -4 10 -8 9 -16 -2 -12 -17 -14
-10 -5 14 8 20 30 21 37 1z m56 -21 c3 -16 1 -17 -13 -5 -19 16 -21 34 -3 29
6 -3 14 -13 16 -24z m-324 -14 c3 -6 -1 -7 -9 -4 -18 7 -21 14 -7 14 6 0 13
-4 16 -10z m110 -33 c15 5 15 3 4 -16 -8 -11 -16 -20 -19 -18 -3 2 -22 11 -43
20 -47 22 -40 41 8 21 18 -7 41 -11 50 -7z m115 -19 c0 -4 -4 -8 -10 -8 -5 0
-10 7 -10 15 0 8 -5 15 -11 15 -5 0 -7 5 -3 12 5 7 11 5 21 -7 7 -11 13 -22
13 -27z m187 7 c6 -14 8 -27 4 -30 -4 -2 -15 11 -24 30 -11 23 -12 33 -4 29 7
-2 17 -16 24 -29z m-152 15 c3 -5 2 -10 -4 -10 -5 0 -13 5 -16 10 -3 6 -2 10
4 10 5 0 13 -4 16 -10z m-224 -27 c13 -15 12 -15 -8 -4 -24 12 -29 21 -14 21
5 0 15 -7 22 -17z m479 -40 c0 -14 -19 -28 -27 -19 -3 3 -7 22 -9 43 l-4 38
20 -25 c11 -14 20 -30 20 -37z m-145 -13 c6 -24 5 -23 -14 4 -11 17 -17 34
-14 39 7 11 17 -6 28 -43z m-181 9 c-6 -11 -24 -2 -24 11 0 5 7 7 15 4 8 -4
12 -10 9 -15z m272 4 c3 -10 12 -33 20 -50 7 -18 10 -33 6 -33 -4 0 -14 15
-21 33 -8 17 -18 40 -22 50 -5 10 -4 17 2 17 5 0 12 -8 15 -17z m-316 -3 c0
-5 -4 -10 -10 -10 -5 0 -10 5 -10 10 0 6 5 10 10 10 6 0 10 -4 10 -10z m135 0
c3 -5 2 -10 -4 -10 -5 0 -13 5 -16 10 -3 6 -2 10 4 10 5 0 13 -4 16 -10z
m-115 -36 c0 -12 -4 -13 -21 -3 -17 9 -19 13 -8 19 16 11 29 4 29 -16z m371
-20 c6 -7 1 -20 -12 -35 -21 -23 -21 -24 -15 -2 4 12 2 31 -3 42 -8 14 -8 21
2 24 6 2 14 -1 16 -7 2 -6 8 -16 12 -22z m-411 -4 c23 -18 24 -20 4 -20 -11 0
-30 -9 -42 -20 -11 -11 -24 -16 -27 -10 -3 5 3 15 13 21 12 7 17 19 14 31 -6
23 6 23 38 -2z m90 4 c0 -8 -4 -12 -10 -9 -5 3 -10 10 -10 16 0 5 5 9 10 9 6
0 10 -7 10 -16z m260 -45 c0 -6 -4 -7 -10 -4 -5 3 -10 11 -10 16 0 6 5 7 10 4
6 -3 10 -11 10 -16z m-338 -11 c-7 -7 -12 -8 -12 -2 0 6 3 14 7 17 3 4 9 5 12
2 2 -3 -1 -11 -7 -17z m426 -31 l-3 -22 -13 23 c-8 13 -11 31 -7 40 6 16 7 16
16 -1 6 -10 9 -28 7 -40z m-324 11 c25 -16 46 -47 78 -112 23 -49 62 -124 86
-165 23 -42 42 -79 42 -84 0 -5 -15 -7 -32 -5 -34 3 -35 0 -23 -39 4 -14 2
-23 -4 -23 -6 0 -10 3 -10 8 4 21 -3 24 -15 6 -8 -10 -12 -29 -9 -42 4 -17 2
-21 -11 -16 -9 3 -16 10 -16 14 0 5 -20 16 -45 26 -25 9 -45 19 -45 22 0 11
34 42 46 42 8 0 11 6 8 15 -4 9 5 32 19 53 14 20 26 46 27 57 4 34 0 55 -8 55
-10 0 -62 -77 -62 -91 0 -5 -4 -9 -8 -9 -5 0 -23 -20 -41 -45 l-32 -45 -59 30
c-61 31 -82 50 -55 50 8 0 18 7 21 15 4 8 10 15 16 15 5 0 6 -4 3 -10 -3 -5 1
-10 9 -10 9 0 16 3 16 8 0 13 109 128 110 115 0 -6 -12 -21 -26 -32 -14 -11
-27 -26 -28 -33 -5 -24 -29 -68 -38 -68 -4 0 -8 -11 -8 -25 0 -38 21 -31 71
23 60 66 87 105 95 138 7 27 7 28 -10 11 -10 -9 -21 -17 -26 -17 -10 0 -20 39
-16 65 2 11 -4 25 -13 31 -12 10 -13 15 -3 27 19 23 -4 32 -33 13 -32 -21 -38
-20 -25 4 13 25 3 26 -24 3 -18 -16 -17 -14 3 15 27 38 31 39 75 10z m371 12
c3 -5 1 -10 -4 -10 -6 0 -11 5 -11 10 0 6 2 10 4 10 3 0 8 -4 11 -10z m-294
-23 c-10 -9 -11 -8 -5 6 3 10 9 15 12 12 3 -3 0 -11 -7 -18z m-176 3 c-3 -5
-11 -10 -16 -10 -6 0 -7 5 -4 10 3 6 11 10 16 10 6 0 7 -4 4 -10z m-65 -4 c0
-2 -7 -7 -16 -10 -8 -3 -12 -2 -9 4 6 10 25 14 25 6z m564 -41 c3 -8 1 -15 -3
-15 -5 0 -11 7 -15 15 -3 8 -1 15 3 15 5 0 11 -7 15 -15z m-52 -17 c-7 -7 -12
-8 -12 -2 0 6 3 14 7 17 3 4 9 5 12 2 2 -3 -1 -11 -7 -17z m88 12 c0 -5 -5
-10 -11 -10 -5 0 -7 5 -4 10 3 6 8 10 11 10 2 0 4 -4 4 -10z m-614 -19 c0 -11
-5 -17 -13 -14 -10 4 -11 9 -2 19 15 18 15 18 15 -5z m103 17 c-2 -2 -17 -14
-34 -28 -22 -19 -26 -20 -15 -5 18 24 32 35 44 35 5 0 7 -1 5 -2z m27 -30
c-11 -15 -16 -18 -16 -7 0 16 21 42 28 34 2 -2 -3 -14 -12 -27z m551 -8 c-2
-24 -12 -26 -21 -4 -3 8 -2 12 4 9 6 -3 10 -1 10 4 0 6 -7 11 -15 11 -8 0 -15
5 -15 10 0 7 6 7 19 0 11 -5 19 -19 18 -30z m-132 10 c3 -5 -1 -10 -10 -10 -9
0 -13 5 -10 10 3 6 8 10 10 10 2 0 7 -4 10 -10z m-200 -10 c3 -5 1 -10 -4 -10
-6 0 -11 5 -11 10 0 6 2 10 4 10 3 0 8 -4 11 -10z m-411 -70 c-21 -38 -40 -70
-43 -70 -4 0 -18 11 -33 25 -15 14 -32 25 -38 25 -7 0 -10 5 -8 12 6 17 29 23
26 6 -2 -7 5 -12 14 -12 10 1 14 -4 11 -12 -3 -8 0 -14 6 -14 6 0 11 3 11 8 0
8 79 102 86 102 3 0 -12 -31 -32 -70z m653 48 c-3 -8 -6 -5 -6 6 -1 11 2 17 5
13 3 -3 4 -12 1 -19z m-687 -23 c-7 -9 -15 -13 -17 -11 -6 6 20 36 26 30 2 -2
-2 -10 -9 -19z m97 -23 c-20 -21 -37 -44 -37 -51 0 -7 21 9 46 36 52 55 48 41
-10 -34 -43 -55 -56 -62 -75 -39 -11 14 -9 17 82 113 11 12 23 20 26 18 3 -3
-12 -22 -32 -43z m93 28 c0 -5 -5 -10 -11 -10 -5 0 -7 5 -4 10 3 6 8 10 11 10
2 0 4 -4 4 -10z m215 0 c3 -5 1 -10 -4 -10 -6 0 -11 5 -11 10 0 6 2 10 4 10 3
0 8 -4 11 -10z m335 -64 c0 -8 5 -16 12 -18 7 -3 8 -9 3 -18 -6 -10 -11 -9
-22 5 -15 22 -17 45 -3 45 6 0 10 -6 10 -14z m-267 -45 c19 -43 21 -51 8 -51
-5 0 -12 12 -15 26 -4 15 -14 33 -21 41 -18 18 -20 34 -2 27 6 -2 20 -22 30
-43z m-217 7 c-9 -12 -16 -19 -16 -15 0 11 24 47 28 42 2 -2 -3 -14 -12 -27z
m-356 12 c0 -6 11 -15 25 -20 14 -5 25 -15 25 -22 0 -6 10 -22 22 -35 12 -13
17 -23 11 -23 -5 0 -20 11 -34 26 -22 24 -24 24 -37 7 -14 -17 -14 -16 -9 5 3
12 1 20 -4 16 -5 -3 -9 -1 -9 5 0 19 -27 0 -39 -27 -10 -22 -10 -28 3 -37 11
-8 12 -15 5 -22 -14 -14 -3 -33 17 -33 8 0 14 -4 14 -9 0 -5 9 -13 20 -16 11
-4 18 -10 15 -15 -5 -9 21 -23 45 -25 8 0 14 -6 13 -13 -2 -7 2 -12 8 -12 5 0
7 -5 4 -10 -3 -6 2 -13 12 -17 10 -4 21 -11 26 -17 5 -8 10 -7 16 2 6 10 10 8
14 -9 4 -13 2 -26 -4 -29 -5 -4 -1 -14 11 -25 11 -10 20 -13 20 -7 0 7 7 9 17
5 11 -4 13 -8 5 -11 -10 -3 -10 -7 -1 -18 10 -12 14 -12 21 -2 6 10 10 10 17
-2 5 -8 7 -19 4 -25 -3 -5 0 -4 8 3 20 19 31 14 19 -8 -10 -18 -7 -24 13 -21
4 0 7 -3 7 -8 0 -5 9 -12 20 -16 11 -3 19 -11 17 -16 -1 -6 14 -19 33 -30 19
-11 35 -25 35 -32 0 -26 -47 -5 -100 47 -54 52 -81 71 -97 68 -5 -1 -8 4 -8
11 0 7 -18 31 -40 52 -22 21 -40 45 -40 53 0 7 -4 11 -8 8 -5 -3 -34 15 -65
40 -31 24 -64 44 -72 44 -9 0 -13 4 -10 10 6 10 -40 60 -55 60 -4 0 -10 -7
-14 -15 -3 -9 0 -15 9 -15 8 0 15 -7 15 -16 0 -10 6 -14 15 -10 13 5 17 0 14
-20 0 -4 5 -10 12 -15 10 -6 10 -11 0 -22 -8 -10 -9 -17 -1 -22 5 -3 10 1 10
9 0 19 35 8 80 -26 28 -20 44 -48 18 -32 -7 4 -8 3 -4 -5 4 -6 12 -9 17 -5 13
8 49 -25 49 -44 0 -9 2 -13 5 -10 3 3 22 -11 43 -31 77 -74 167 -151 175 -151
4 0 5 -5 1 -11 -3 -6 -2 -14 4 -18 6 -4 5 -11 -4 -19 -12 -11 -14 -9 -15 10 0
15 -21 41 -62 75 -169 144 -193 163 -201 163 -5 0 -2 -8 7 -18 11 -12 13 -22
6 -34 -6 -11 -6 -19 1 -23 5 -3 10 -1 10 5 0 6 11 5 30 -5 17 -9 30 -22 30
-30 0 -9 6 -12 15 -9 14 6 16 2 19 -36 1 -8 8 -24 16 -35 19 -25 52 -51 49
-39 -4 21 2 24 16 10 9 -9 24 -20 33 -25 9 -5 14 -13 10 -17 -4 -4 -16 -1 -25
6 -10 7 -6 1 10 -13 32 -31 33 -37 9 -37 -22 0 -107 59 -98 67 9 10 -14 43
-30 43 -12 0 -10 -5 7 -20 18 -14 20 -19 9 -20 -9 0 -21 5 -28 12 -7 7 -12 8
-12 2 0 -6 12 -16 26 -22 15 -8 22 -17 18 -24 -6 -9 -9 -9 -12 0 -2 7 -10 12
-17 12 -8 0 -21 10 -30 23 -8 12 -18 21 -20 19 -14 -8 -38 17 -31 33 4 13 -2
28 -21 48 -19 21 -23 28 -10 24 9 -4 17 -3 17 0 0 12 -33 43 -45 43 -6 0 -32
22 -56 48 -33 35 -51 47 -71 47 -22 -1 -29 5 -33 26 -5 20 -11 26 -21 22 -11
-4 -15 0 -12 12 2 14 -3 19 -24 19 -33 0 -58 -20 -57 -48 0 -11 3 -15 6 -8 8
19 22 14 35 -13 6 -13 19 -27 30 -31 10 -3 16 -9 13 -14 -3 -5 -1 -11 5 -15 6
-4 8 -10 5 -15 -3 -5 8 -16 25 -25 16 -8 30 -22 30 -31 0 -21 -37 7 -119 89
l-63 65 108 141 c60 77 115 140 123 141 8 0 11 3 8 7 -8 7 11 33 24 33 5 0 9
-5 9 -10z m263 -15 c-3 -9 -8 -14 -10 -11 -3 3 -2 9 2 15 9 16 15 13 8 -4z
m-53 2 c0 -2 -10 -12 -21 -23 -22 -19 -22 -19 -10 4 10 18 31 31 31 19z m740
-17 c0 -5 -2 -10 -4 -10 -3 0 -8 5 -11 10 -3 6 -1 10 4 10 6 0 11 -4 11 -10z
m-273 -20 c-1 -11 -2 -20 -4 -20 -1 0 -7 9 -13 20 -8 16 -8 20 4 20 9 0 14 -8
13 -20z m-531 -47 c-5 -5 -76 46 -76 53 0 3 18 -8 40 -22 22 -15 38 -29 36
-31z m739 48 c3 -5 1 -12 -5 -16 -5 -3 -10 1 -10 9 0 18 6 21 15 7z m-115 -61
c14 -27 1 -50 -13 -24 -6 11 -12 25 -13 32 -3 19 14 14 26 -8z m130 10 c0 -5
-4 -10 -10 -10 -5 0 -10 5 -10 10 0 6 5 10 10 10 6 0 10 -4 10 -10z m-529 -36
c-11 -15 -21 -24 -21 -20 0 12 33 57 37 52 3 -3 -4 -17 -16 -32z m268 -1 c29
-75 59 -134 67 -133 4 1 9 -3 11 -10 1 -7 0 -6 -4 1 -4 8 -8 8 -13 -1 -6 -9
-15 0 -29 28 -12 23 -18 42 -14 42 5 0 3 4 -4 8 -6 4 -13 14 -15 22 -2 8 -11
23 -20 34 -22 24 -23 36 -4 36 8 0 19 -12 25 -27z m-525 1 c9 -8 16 -18 16
-20 0 -7 -38 15 -45 26 -10 16 12 12 29 -6z m576 -5 c0 -5 -4 -9 -8 -9 -5 0
-9 7 -9 15 0 8 4 12 9 9 4 -3 8 -9 8 -15z m-1196 -20 c7 -11 32 -40 56 -65 34
-36 40 -47 30 -59 -15 -18 -31 -10 -23 10 3 8 0 15 -6 15 -6 0 -11 -7 -11 -15
0 -8 -6 -15 -12 -16 -10 0 -10 -2 -1 -5 7 -3 9 -12 6 -21 -5 -11 -3 -14 6 -8
18 10 -2 -27 -23 -45 -9 -7 -16 -17 -16 -22 0 -5 -6 -16 -12 -23 -7 -7 -29
-36 -48 -64 -19 -28 -40 -49 -47 -46 -13 4 -26 -22 -18 -35 3 -5 -10 -31 -28
-57 -19 -26 -38 -59 -41 -73 l-7 -25 20 25 c11 14 21 30 21 36 0 6 8 18 17 25
15 12 16 12 10 -4 -4 -10 -7 -25 -7 -32 0 -8 -9 -23 -21 -34 -15 -13 -17 -21
-9 -26 7 -4 15 -2 19 4 4 6 15 9 24 5 11 -4 17 -1 17 8 0 8 10 23 21 34 l22
19 -21 -41 c-12 -23 -19 -44 -16 -47 3 -3 -4 -10 -15 -17 -12 -6 -19 -15 -16
-21 4 -5 1 -9 -4 -9 -6 0 -11 -5 -11 -11 0 -5 5 -7 10 -4 6 3 10 -1 10 -10 0
-9 -4 -14 -9 -10 -5 3 -12 -4 -16 -15 -3 -11 -10 -20 -15 -20 -5 0 -8 -13 -8
-28 1 -30 -17 -72 -31 -72 -10 0 -21 35 -21 67 0 14 8 24 22 29 28 9 49 35 43
52 -3 8 6 27 20 44 14 16 22 34 19 40 -4 7 -10 4 -16 -6 -6 -10 -17 -14 -31
-11 -18 5 -22 1 -24 -17 -1 -13 -4 -35 -5 -50 -4 -33 -25 -59 -32 -37 -2 8 -7
22 -10 33 -7 21 11 49 27 39 6 -4 7 -1 3 6 -5 7 -14 10 -22 7 -8 -3 -14 -2
-14 2 -1 4 -5 26 -9 49 -6 32 -5 43 5 47 8 3 11 12 7 22 -4 11 -2 15 4 11 6
-4 27 10 47 29 28 27 34 39 26 49 -12 14 3 31 19 21 8 -5 25 29 22 47 -1 4 4
7 10 7 6 0 9 -7 5 -15 -8 -22 7 -18 22 5 7 11 8 20 2 20 -5 0 -7 7 -4 15 5 12
10 13 20 4 11 -9 14 -8 14 2 0 8 11 27 25 43 14 16 25 32 26 35 0 3 2 15 4 26
7 31 -5 59 -18 46 -14 -14 -37 -14 -37 0 0 5 3 8 8 5 4 -2 13 7 19 21 10 20 9
24 -1 20 -7 -3 -19 -1 -27 4 -8 5 -9 9 -3 9 7 0 15 7 18 16 3 8 2 12 -4 9 -14
-9 -12 8 3 25 6 8 1 6 -12 -5 -13 -11 -25 -19 -28 -17 -6 4 -43 -49 -43 -60 0
-5 7 -8 15 -8 8 0 15 5 15 10 0 6 9 10 20 10 11 0 20 -7 20 -16 0 -8 -3 -13
-7 -11 -5 3 -7 -9 -7 -26 1 -18 -3 -37 -8 -43 -5 -8 -3 -14 8 -18 16 -6 15 -8
-2 -21 -26 -19 -35 -19 -27 3 6 15 5 15 -10 3 -9 -7 -17 -27 -17 -43 0 -16 -4
-27 -9 -23 -13 7 -42 -35 -34 -49 3 -6 3 -8 -2 -4 -5 5 -19 -8 -33 -28 -19
-28 -26 -33 -34 -23 -6 10 -7 7 -3 -10 5 -16 4 -21 -4 -17 -6 4 -9 1 -5 -7 3
-8 -1 -19 -9 -26 -12 -9 -16 -6 -21 20 -5 26 0 42 26 83 18 28 46 64 63 80 16
16 24 26 18 22 -7 -4 -13 -2 -13 4 0 6 6 13 14 16 8 3 12 12 9 20 -3 7 2 17
11 20 18 7 22 59 6 69 -6 4 -8 15 -5 25 4 12 0 20 -12 24 -15 5 -63 74 -63 91
0 3 47 5 105 4 92 -1 107 -4 119 -20z m696 11 c8 -5 12 -11 10 -14 -3 -2 -14
2 -24 10 -22 15 -10 19 14 4z m-155 -10 c3 -5 1 -10 -4 -10 -6 0 -11 5 -11 10
0 6 2 10 4 10 3 0 8 -4 11 -10z m573 -41 c-11 -7 -11 -9 0 -9 7 0 10 -4 7 -10
-3 -5 1 -10 9 -10 20 0 31 -37 16 -55 -6 -8 -19 -11 -28 -8 -15 4 -15 3 -2 -6
13 -9 13 -12 -3 -28 -15 -16 -19 -16 -27 -3 -5 8 -8 20 -5 27 2 7 -2 10 -9 7
-16 -6 -50 31 -41 45 3 6 13 11 22 11 10 0 13 6 9 16 -3 8 -2 12 3 9 11 -6 26
32 23 55 -2 9 5 6 18 -9 16 -19 18 -26 8 -32z m-354 14 c-8 -9 -18 -12 -22 -8
-4 4 -1 10 6 12 6 3 10 9 7 14 -4 5 1 6 9 3 14 -5 14 -8 0 -21z m760 11 c3 -8
2 -12 -4 -9 -6 3 -10 10 -10 16 0 14 7 11 14 -7z m-824 -14 c13 -11 29 -20 37
-20 8 0 13 -8 11 -17 -2 -10 3 -17 10 -15 6 1 12 -3 12 -9 0 -5 4 -8 9 -4 5 3
13 0 17 -6 5 -8 2 -10 -7 -5 -8 4 -3 -1 11 -12 16 -14 27 -17 31 -10 4 6 -3
19 -14 29 -36 30 1 22 39 -8 37 -30 46 -50 15 -33 -14 7 -22 7 -27 -2 -4 -7
-3 -8 4 -4 7 4 12 1 12 -8 0 -9 6 -16 13 -16 8 0 33 -18 56 -40 23 -22 46 -38
52 -35 5 4 9 1 9 -5 0 -6 5 -8 10 -5 6 3 13 -1 16 -10 12 -31 -6 -28 -50 9
-24 20 -48 36 -53 36 -5 0 -32 15 -61 34 -28 19 -52 33 -52 30 0 -3 -7 1 -15
10 -8 8 -15 18 -15 22 0 4 -22 29 -50 55 -45 43 -57 59 -47 59 2 0 14 -9 27
-20z m91 -13 c-10 -9 -11 -8 -5 6 3 10 9 15 12 12 3 -3 0 -11 -7 -18z m545
-54 c29 -66 45 -106 45 -113 0 -3 7 -9 15 -13 8 -4 14 -15 14 -23 0 -8 16 -44
35 -79 19 -35 30 -67 26 -70 -5 -3 -12 1 -14 7 -3 7 -3 -1 0 -18 3 -17 1 -34
-4 -37 -5 -3 -10 6 -11 20 -1 15 -8 34 -15 42 -19 23 -37 71 -40 108 -1 17 -5
29 -9 26 -5 -2 -8 1 -8 6 0 6 -7 11 -15 11 -12 0 -14 4 -6 17 9 17 0 49 -35
130 -15 33 -17 43 -9 43 3 0 17 -26 31 -57z m118 41 c9 -24 7 -31 -10 -38 -12
-4 -14 -1 -9 14 5 15 2 20 -12 20 -15 0 -16 2 -3 10 21 13 27 12 34 -6z m-66
-64 c-2 -7 -10 1 -17 16 -12 27 -11 28 4 12 10 -9 16 -21 13 -28z m-413 -9
c52 -30 101 -78 90 -89 -3 -4 -10 0 -15 8 -5 8 -13 11 -17 6 -4 -4 1 -14 11
-22 11 -8 18 -14 15 -15 -2 0 -12 -2 -22 -4 -10 -2 -17 2 -16 8 6 46 -3 67
-32 82 -17 9 -33 14 -35 12 -8 -7 26 -37 42 -37 8 0 14 -4 14 -10 0 -18 -29
-11 -50 12 -11 12 -19 27 -18 34 2 7 -6 20 -17 28 -33 26 -3 18 50 -13z m303
8 c19 -30 8 -34 -12 -4 -9 14 -13 25 -9 25 5 0 14 -9 21 -21z m-1150 -41 c-2
-19 2 -33 10 -35 6 -3 12 0 12 6 0 19 35 12 48 -9 10 -17 10 -20 -2 -20 -15 0
-40 -28 -82 -93 -29 -46 -30 -51 -4 -37 11 6 20 17 20 25 0 8 5 15 10 15 15 0
13 -9 -11 -47 -19 -30 -23 -32 -33 -18 -11 15 -13 15 -25 1 -19 -22 -28 -20
-27 7 0 12 7 22 14 22 28 0 78 74 73 108 0 4 4 7 10 7 8 0 8 5 -1 15 -18 22
-47 18 -61 -6 -8 -15 -8 -19 0 -15 7 4 11 -1 11 -14 0 -11 -7 -23 -15 -26 -8
-4 -15 -12 -15 -20 0 -7 -9 -28 -19 -46 -11 -17 -18 -35 -15 -40 3 -4 -1 -8
-8 -8 -21 0 -40 58 -26 84 14 26 129 176 135 176 2 0 3 -14 1 -32z m1070 -17
c-2 -7 -17 -15 -34 -16 l-31 -2 21 33 c19 29 22 31 34 16 7 -9 11 -23 10 -31z
m222 -5 c0 -12 -5 -7 -19 24 -11 24 -11 24 3 6 9 -11 16 -24 16 -30z m-1440 5
c0 -5 -7 -14 -15 -21 -10 -9 -15 -9 -15 -1 0 6 5 11 11 11 5 0 7 5 4 10 -3 6
-1 10 4 10 6 0 11 -4 11 -9z m1284 -6 c3 -8 1 -15 -4 -15 -6 0 -10 7 -10 15 0
8 2 15 4 15 2 0 6 -7 10 -15z m51 -26 c0 -8 6 -18 13 -22 12 -8 8 -27 -7 -27
-8 0 -31 45 -31 61 0 6 6 9 13 7 6 -3 12 -11 12 -19z m115 1 c0 -5 -2 -10 -4
-10 -3 0 -8 5 -11 10 -3 6 -1 10 4 10 6 0 11 -4 11 -10z m-187 -36 c9 -19 17
-42 17 -50 0 -20 -30 -65 -40 -59 -4 3 -11 -2 -14 -11 -3 -9 -2 -12 5 -8 6 3
3 -8 -6 -25 -9 -19 -20 -29 -27 -25 -8 5 -9 1 -5 -10 4 -9 3 -14 -2 -11 -8 4
-24 -24 -26 -46 -1 -14 -41 -89 -47 -89 -5 0 -8 -6 -8 -13 0 -8 -25 -59 -56
-115 -51 -93 -59 -102 -85 -102 -16 0 -29 5 -29 10 0 6 10 10 23 10 16 0 19 3
8 9 -11 7 -10 15 8 44 12 19 20 41 18 48 -2 8 -2 11 0 6 3 -4 9 -5 14 -1 14 9
11 -8 -12 -50 -11 -21 -16 -35 -10 -32 16 10 67 90 73 114 8 29 -6 28 -20 0
-7 -15 -11 -18 -11 -7 -1 20 19 39 42 39 10 0 16 4 13 9 -3 5 -15 7 -26 4 -11
-3 -20 -1 -20 5 0 5 8 9 18 8 9 0 16 5 15 12 -2 6 3 12 11 12 8 0 22 7 31 17
15 15 15 17 1 25 -21 12 -20 27 4 58 11 14 20 21 19 15 0 -5 -6 -19 -14 -29
-20 -26 -19 -35 2 -32 10 2 20 11 23 22 9 35 41 85 49 79 5 -3 11 2 14 10 4
10 1 12 -10 8 -13 -5 -13 -3 -4 15 16 29 14 40 -3 17 -13 -19 -14 -18 -13 7 1
14 4 26 7 26 18 -1 29 4 34 18 4 9 2 13 -5 8 -7 -4 -9 1 -7 12 2 11 -3 25 -12
32 -13 10 -13 11 0 7 8 -3 21 4 28 15 13 21 3 27 -14 10 -7 -7 -11 -6 -11 5 0
30 41 16 60 -21z m-73 16 c0 -5 -4 -10 -10 -10 -5 0 -10 5 -10 10 0 6 5 10 10
10 6 0 10 -4 10 -10z m-829 -101 c144 -133 133 -118 113 -140 -16 -18 -16 -19
1 -19 11 0 15 -5 12 -14 -7 -16 19 -30 28 -15 4 5 3 19 0 32 -5 19 -1 17 25
-11 l31 -34 -24 -31 c-41 -55 -43 -61 -16 -47 23 13 23 13 8 -11 -9 -13 -21
-34 -28 -47 -10 -19 -14 -21 -26 -8 -8 8 -20 16 -26 18 -11 4 7 54 33 90 10
14 10 20 -1 30 -11 10 -12 10 -7 1 4 -7 3 -13 -1 -13 -5 0 -14 -13 -20 -30 -6
-16 -18 -30 -27 -30 -12 0 -15 -6 -11 -23 4 -16 0 -28 -12 -38 -17 -13 -17
-13 -4 4 12 15 12 20 2 26 -11 7 -11 13 0 32 6 13 17 29 23 36 41 46 40 45 17
62 -14 11 -20 23 -15 34 4 11 1 17 -7 17 -10 1 -9 5 4 14 25 19 21 27 -8 14
-14 -6 -25 -19 -25 -30 0 -10 -6 -18 -12 -18 -9 0 -8 -4 2 -11 12 -9 11 -10
-6 -6 -13 3 -25 -3 -33 -15 -10 -16 -10 -19 0 -12 7 4 4 -4 -7 -18 -10 -14
-22 -21 -25 -16 -4 7 -9 7 -13 0 -3 -6 0 -13 6 -16 9 -3 7 -9 -6 -20 -12 -10
-15 -16 -7 -16 7 0 11 -6 8 -12 -2 -7 -10 -12 -17 -10 -7 1 -18 -3 -26 -9 -8
-6 -14 -8 -14 -4 0 4 -7 2 -15 -5 -9 -7 -13 -21 -10 -31 4 -12 1 -21 -9 -25
-8 -3 -12 -12 -9 -20 3 -8 0 -14 -6 -14 -12 0 -15 23 -3 34 4 4 7 11 7 14 1
23 30 72 40 68 7 -2 17 6 23 19 9 20 7 28 -14 50 l-24 26 33 44 c17 24 38 44
45 45 7 0 11 4 8 9 -3 4 1 17 9 27 30 40 13 47 -21 9 -20 -22 -33 -34 -29 -27
5 9 0 11 -18 6 -23 -5 -25 -3 -20 17 4 15 3 20 -5 15 -8 -4 -12 0 -12 11 -1
19 -5 15 -63 -56 -18 -22 -18 -23 2 -28 19 -5 19 -6 3 -37 -23 -43 -62 -84
-62 -65 0 11 -2 12 -9 1 -5 -8 -16 -12 -25 -10 -16 3 -16 4 -1 23 15 19 16 19
11 1 -5 -15 -4 -17 7 -8 8 7 16 10 19 7 3 -3 11 2 19 12 12 14 12 16 0 8 -11
-6 -13 -4 -7 10 5 15 4 16 -9 5 -10 -9 -15 -9 -15 -1 0 13 36 82 47 90 23 17
106 161 98 169 -2 3 -12 -1 -21 -9 -16 -13 -16 -12 -5 8 7 14 19 22 31 20 10
-2 65 -46 121 -98z m953 85 c9 -22 -3 -32 -14 -14 -12 19 -12 30 -1 30 5 0 12
-7 15 -16z m-190 -26 c-16 -18 -30 -35 -31 -37 -2 -2 -5 -2 -8 0 -9 10 35 69
52 69 13 0 11 -7 -13 -32z m46 13 c0 -6 -12 -23 -26 -38 -24 -27 -25 -27 -13
-3 20 41 39 62 39 41z m-632 -20 c3 -8 -1 -12 -9 -9 -7 2 -15 10 -17 17 -3 8
1 12 9 9 7 -2 15 -10 17 -17z m942 -2 c0 -6 -4 -7 -10 -4 -5 3 -10 11 -10 16
0 6 5 7 10 4 6 -3 10 -11 10 -16z m-479 -8 c13 -11 21 -22 17 -26 -7 -7 -57
25 -58 38 0 13 17 8 41 -12z m329 -27 c0 -13 5 -24 10 -24 6 0 10 -8 10 -17 0
-10 7 -27 15 -37 17 -23 19 -36 5 -36 -5 0 -10 5 -10 11 0 6 -11 33 -25 61
-26 51 -32 84 -15 73 6 -3 10 -17 10 -31z m-349 -7 c-13 -13 -26 -3 -16 12 3
6 11 8 17 5 6 -4 6 -10 -1 -17z m429 -30 c0 -5 -6 -5 -12 -2 -7 4 -2 -3 11
-14 15 -14 22 -28 18 -41 -3 -11 -2 -18 2 -15 12 7 32 -45 26 -66 -9 -27 -23
-24 -31 6 -7 29 -24 34 -25 8 0 -15 -2 -15 -9 2 -13 29 -12 35 5 29 18 -7 21
31 4 42 -21 12 -38 66 -25 79 8 10 14 9 23 -4 7 -9 13 -20 13 -24z m-930 17
c0 -8 -19 -13 -24 -6 -3 5 1 9 9 9 8 0 15 -2 15 -3z m58 -13 c3 -8 -1 -12 -9
-9 -7 2 -15 10 -17 17 -3 8 1 12 9 9 7 -2 15 -10 17 -17z m-533 -29 c-4 -4
-10 -1 -12 6 -3 6 -9 10 -14 6 -5 -3 -9 -1 -9 4 0 18 13 21 27 6 9 -8 12 -18
8 -22z m508 8 c9 -11 13 -20 7 -20 -5 0 -14 9 -20 20 -6 11 -9 20 -8 20 2 0
11 -9 21 -20z m-518 -22 c0 -2 -8 -12 -17 -22 -11 -10 -18 -13 -18 -5 0 9 -4
8 -15 -1 -8 -7 -15 -18 -15 -26 0 -7 -5 -16 -10 -19 -6 -4 -8 3 -6 17 3 13 5
26 5 29 1 4 10 9 22 12 12 3 18 10 14 16 -4 7 2 10 17 8 13 -2 23 -6 23 -9z
m1175 -17 c-12 -24 -30 -36 -30 -21 0 13 22 39 33 40 4 0 3 -9 -3 -19z m160 0
c0 -4 -11 -8 -25 -9 -14 -1 -25 2 -25 6 0 4 11 8 25 8 14 1 25 -1 25 -5z
m-760 -5 c0 -11 -19 -15 -25 -6 -3 5 1 10 9 10 9 0 16 -2 16 -4z m432 -22 c-3
-19 -1 -25 7 -20 24 15 9 -12 -19 -32 -40 -30 -49 -28 -19 4 l24 26 -22 -6
c-30 -9 -29 -3 2 29 32 31 33 31 27 -1z m-1008 -9 c-4 -8 -8 -15 -10 -15 -2 0
-4 7 -4 15 0 8 4 15 10 15 5 0 7 -7 4 -15z m82 -13 c-18 -16 -18 -16 -6 6 6
13 14 21 18 18 3 -4 -2 -14 -12 -24z m524 -2 c0 -5 -2 -10 -4 -10 -3 0 -8 5
-11 10 -3 6 -1 10 4 10 6 0 11 -4 11 -10z m442 -18 c-7 -2 -12 -12 -12 -23 0
-10 -7 -19 -15 -19 -12 0 -11 7 7 35 13 19 25 29 27 23 2 -7 -1 -14 -7 -16z
m-1108 -16 c-8 -20 -20 -21 -28 0 -3 8 -2 12 3 9 5 -3 13 0 16 6 10 15 17 5 9
-15z m276 14 c0 -5 -5 -10 -11 -10 -5 0 -7 5 -4 10 3 6 8 10 11 10 2 0 4 -4 4
-10z m1050 -56 c25 -58 26 -79 1 -39 -18 30 -36 85 -27 85 3 0 14 -21 26 -46z
m44 -21 c15 -38 32 -76 37 -85 6 -13 5 -18 -4 -18 -7 0 -23 33 -37 73 -13 39
-26 78 -28 85 -2 6 -2 12 0 12 3 0 17 -30 32 -67z m-1120 42 c-6 -16 -24 -21
-24 -7 0 11 11 22 21 22 5 0 6 -7 3 -15z m1246 -23 c0 -7 -4 -10 -10 -7 -5 3
-10 16 -10 28 0 18 2 19 10 7 5 -8 10 -21 10 -28z m-51 -7 c1 18 3 17 14 -5
17 -31 14 -35 -14 -20 -19 11 -21 10 -16 -5 5 -10 3 -15 -5 -13 -6 2 -13 15
-15 29 -2 19 -1 21 7 9 8 -13 10 -12 11 5 l0 20 9 -20 9 -20 0 20z m-679 -11
c0 -14 -3 -14 -15 -4 -8 7 -15 14 -15 16 0 2 7 4 15 4 8 0 15 -7 15 -16z m255
6 c-3 -5 -11 -10 -16 -10 -6 0 -7 5 -4 10 3 6 11 10 16 10 6 0 7 -4 4 -10z
m78 -10 c-3 -12 -8 -19 -11 -16 -5 6 5 36 12 36 2 0 2 -9 -1 -20z m-1080 -5
c-3 -9 -8 -14 -10 -11 -3 3 -2 9 2 15 9 16 15 13 8 -4z m790 -1 c-4 -11 3 -24
18 -36 l24 -19 -31 15 c-34 17 -50 42 -31 50 22 8 26 6 20 -10z m162 6 c-3 -5
1 -10 9 -10 23 0 20 -17 -8 -45 -13 -13 -22 -26 -19 -29 11 -10 -45 -59 -61
-53 -31 12 -29 36 5 81 37 48 51 54 23 9 l-18 -28 22 19 c12 11 22 24 22 31 0
6 5 16 12 23 15 15 21 16 13 2z m-239 -54 l54 -54 -30 -37 c-34 -43 -37 -41
-13 10 17 36 17 37 -7 55 -24 18 -46 18 -35 -1 4 -5 -1 -9 -9 -9 -17 0 -51
-45 -43 -57 8 -12 -20 -46 -31 -39 -6 3 -8 -2 -5 -14 3 -11 0 -27 -7 -35 -13
-16 -35 -21 -26 -7 3 5 -1 9 -9 9 -8 0 -14 -3 -13 -6 2 -19 -4 -22 -17 -11
-13 10 -15 9 -15 -9 0 -14 4 -20 11 -15 14 8 -7 -33 -29 -58 -34 -40 -43 -12
-11 33 11 16 18 29 14 29 -3 0 -1 9 5 20 6 11 15 18 19 15 5 -3 12 2 15 11 3
8 12 13 18 9 7 -3 6 0 -3 6 -14 11 -13 16 9 58 13 25 37 64 53 85 16 22 29 46
29 53 0 25 22 13 76 -41z m-306 34 c0 -5 -8 -10 -17 -10 -15 0 -16 2 -3 10 19
12 20 12 20 0z m870 -37 c0 -15 -26 -18 -35 -4 -3 5 -1 12 4 16 6 3 8 13 5 23
-5 14 -3 14 10 -2 9 -11 16 -26 16 -33z m-1110 17 c0 -5 -5 -10 -11 -10 -5 0
-7 5 -4 10 3 6 8 10 11 10 2 0 4 -4 4 -10z m1252 -42 c-8 -8 -9 -4 -5 13 4 13
8 18 11 10 2 -7 -1 -18 -6 -23z m-1409 7 c-3 -9 -8 -14 -10 -11 -3 3 -2 9 2
15 9 16 15 13 8 -4z m237 1 c0 -3 -4 -8 -10 -11 -5 -3 -10 -1 -10 4 0 6 5 11
10 11 6 0 10 -2 10 -4z m983 -23 c5 -26 4 -26 -9 -9 -7 10 -11 23 -8 27 8 14
11 11 17 -18z m-1033 -3 c0 -5 -9 -8 -20 -7 -20 1 -25 8 -14 20 8 7 34 -3 34
-13z m498 -12 c-6 -16 -36 -34 -44 -26 -8 9 17 37 34 38 8 0 12 -5 10 -12z
m512 -9 c0 -6 -4 -7 -10 -4 -5 3 -10 11 -10 16 0 6 5 7 10 4 6 -3 10 -11 10
-16z m-1078 -11 c-6 -6 -15 -8 -19 -4 -4 4 -1 11 7 16 19 12 27 3 12 -12z m58
1 c0 -5 4 -7 10 -4 6 4 7 -1 3 -11 -4 -11 -8 -13 -11 -6 -2 7 -8 10 -13 6 -5
-3 -9 2 -9 10 0 9 5 16 10 16 6 0 10 -5 10 -11z m135 1 c3 -5 1 -10 -4 -10 -6
0 -11 5 -11 10 0 6 2 10 4 10 3 0 8 -4 11 -10z m685 -12 c0 -13 -23 -5 -28 10
-2 7 2 10 12 6 9 -3 16 -11 16 -16z m180 1 c0 -5 -7 -9 -15 -9 -9 0 -12 6 -9
15 6 15 24 11 24 -6z m-1051 -12 c-2 -1 -12 -9 -22 -16 -15 -12 -17 -12 -11 3
3 9 13 16 22 16 8 0 13 -1 11 -3z m746 -77 c-3 -6 1 -10 10 -10 10 0 13 5 9
12 -5 7 -3 8 5 4 9 -6 8 -13 -5 -27 -18 -20 -18 -20 -29 1 -8 14 -14 17 -21
10 -8 -8 -15 -6 -24 5 -20 24 -41 18 -82 -22 -21 -20 -40 -34 -44 -31 -3 4 16
28 42 55 27 26 48 53 46 60 -1 6 5 13 15 16 21 5 87 -58 78 -73z m-735 55 c-7
-9 -15 -13 -19 -10 -3 3 1 10 9 15 21 14 24 12 10 -5z m270 5 c0 -5 -2 -10 -4
-10 -3 0 -8 5 -11 10 -3 6 -1 10 4 10 6 0 11 -4 11 -10z m797 -22 c-3 -8 -6
-5 -6 6 -1 11 2 17 5 13 3 -3 4 -12 1 -19z m-223 4 c3 -5 -8 -9 -25 -9 -19 0
-25 3 -17 9 17 10 35 10 42 0z m148 -14 c-7 -7 -12 -8 -12 -2 0 6 3 14 7 17 3
4 9 5 12 2 2 -3 -1 -11 -7 -17z m-962 4 c0 -11 -39 -52 -49 -52 -5 0 -8 11 -7
24 0 13 3 23 6 21 3 -1 14 1 25 6 11 4 21 8 23 8 1 1 2 -3 2 -7z m95 -11 c-3
-6 -11 -11 -17 -11 -6 0 -6 6 2 15 14 17 26 13 15 -4z m129 -3 c-4 -7 -14 -21
-22 -31 -8 -9 -12 -20 -8 -25 4 -4 18 6 31 23 13 16 27 27 30 23 3 -3 0 -12
-8 -19 -13 -14 -30 -47 -31 -63 -1 -11 -56 -27 -68 -20 -4 3 -3 15 4 27 6 12
11 23 10 25 -2 3 61 72 66 72 2 0 0 -6 -4 -12z m-475 -61 c1 -5 -3 -5 -9 -2
-5 3 -10 -1 -10 -9 0 -18 -25 -22 -35 -6 -10 16 4 48 23 52 15 3 29 -13 31
-35z m856 23 c-3 -5 -11 -10 -16 -10 -6 0 -7 5 -4 10 3 6 11 10 16 10 6 0 7
-4 4 -10z m-805 -15 c0 -8 -2 -15 -4 -15 -2 0 -6 7 -10 15 -3 8 -1 15 4 15 6
0 10 -7 10 -15z m326 -12 c-10 -10 -19 5 -10 18 6 11 8 11 12 0 2 -7 1 -15 -2
-18z m621 9 c-13 -14 -14 -21 -5 -30 8 -8 6 -11 -11 -9 -27 2 -27 22 1 41 30
21 35 20 15 -2z m-797 -4 c-1 -18 -36 -58 -50 -58 -6 0 -9 -8 -6 -17 4 -11 -4
-30 -20 -48 -25 -29 -25 -29 -18 -5 3 14 7 37 8 51 0 15 6 25 12 22 14 -5 35
20 37 46 1 23 37 31 37 9z m50 -6 c0 -4 -14 -27 -32 -51 -17 -24 -32 -53 -33
-65 -2 -11 -7 -20 -13 -19 -6 2 -9 -4 -6 -12 4 -8 1 -15 -5 -15 -6 0 -11 -9
-11 -19 0 -10 -7 -21 -15 -25 -8 -3 -15 -12 -15 -21 0 -8 -4 -15 -10 -15 -5 0
-10 -5 -10 -10 0 -6 8 -5 19 2 11 7 18 14 17 18 -2 3 7 16 20 30 13 13 24 20
24 13 0 -19 -51 -123 -61 -123 -5 0 -41 16 -79 35 -58 29 -70 39 -70 60 0 30
29 35 37 6 6 -25 31 -16 43 14 4 12 15 22 24 22 20 0 20 -7 0 -35 -26 -38 -10
-34 21 5 15 20 28 42 28 50 0 8 6 12 14 9 7 -3 13 1 13 10 0 8 -5 12 -11 8
-19 -11 6 28 39 61 16 17 34 40 41 53 11 21 31 30 31 14z m100 -12 c0 -5 -2
-10 -4 -10 -3 0 -8 5 -11 10 -3 6 -1 10 4 10 6 0 11 -4 11 -10z m573 -2 c-13
-6 -23 -15 -23 -20 0 -5 9 -4 19 2 30 16 38 12 12 -6 -16 -12 -26 -13 -33 -6
-14 14 7 42 31 41 11 0 10 -3 -6 -11z m112 2 c-3 -5 -10 -10 -16 -10 -5 0 -9
5 -9 10 0 6 7 10 16 10 8 0 12 -4 9 -10z m-245 -20 c0 -6 -7 -13 -15 -16 -8
-3 -17 -14 -20 -25 -4 -10 -12 -19 -20 -19 -7 0 -32 -19 -55 -42 l-43 -43 47
62 c57 76 106 114 106 83z m-804 -13 c12 4 14 -6 11 -51 -2 -31 -9 -62 -15
-68 -13 -13 -17 -4 -26 59 -5 37 -4 42 11 37 17 -5 17 -5 1 9 -10 8 -18 18
-18 23 0 4 5 3 11 -3 6 -6 18 -9 25 -6z m284 3 c0 -5 -5 -10 -11 -10 -5 0 -7
5 -4 10 3 6 8 10 11 10 2 0 4 -4 4 -10z m410 6 c0 -3 -4 -8 -10 -11 -5 -3 -10
-1 -10 4 0 6 5 11 10 11 6 0 10 -2 10 -4z m391 -9 c-1 -12 -15 -9 -19 4 -3 6
1 10 8 8 6 -3 11 -8 11 -12z m-737 -8 c14 12 16 10 16 -9 0 -19 -4 -21 -24
-16 -14 3 -28 2 -31 -4 -3 -5 0 -10 7 -11 7 0 2 -5 -11 -10 -13 -5 -26 -8 -28
-6 -8 8 10 37 23 37 8 0 13 3 13 8 -3 19 2 26 10 13 8 -12 12 -12 25 -2z m549
-28 c-9 -14 -9 -21 0 -31 10 -10 7 -10 -11 0 -23 11 -23 12 -6 32 18 19 18 19
-11 13 l-30 -6 25 15 c31 18 50 5 33 -23z m107 15 c0 -3 -4 -8 -10 -11 -5 -3
-10 -1 -10 4 0 6 5 11 10 11 6 0 10 -2 10 -4z m70 -12 c0 -12 -24 -50 -39 -61
-27 -20 -31 -15 -13 17 9 16 24 30 32 30 13 0 13 1 0 10 -13 8 -12 10 3 10 9
0 17 -3 17 -6z m48 -19 c-6 -14 -13 -23 -15 -21 -5 5 15 46 22 46 3 0 -1 -11
-7 -25z m-465 -12 c-6 -14 -33 -18 -33 -5 0 12 8 19 24 19 8 0 12 -6 9 -14z
m-323 -14 c0 -4 -7 -9 -15 -13 -8 -3 -15 0 -15 7 0 8 -4 7 -10 -3 -5 -8 -12
-11 -17 -7 -4 5 -1 12 7 17 16 10 50 9 50 -1z m120 1 c0 -5 -5 -10 -11 -10 -5
0 -7 5 -4 10 3 6 8 10 11 10 2 0 4 -4 4 -10z m-50 -25 c-14 -17 -30 -20 -30
-5 0 6 7 10 15 10 8 0 15 5 15 12 0 6 3 8 6 5 4 -4 1 -13 -6 -22z m-374 -17
c-18 -26 -22 -17 -5 14 6 11 13 17 16 15 3 -3 -2 -16 -11 -29z m254 2 c0 -7 6
-7 20 0 16 9 18 8 14 -5 -3 -8 -10 -13 -14 -10 -4 3 -19 -14 -33 -38 -14 -23
-34 -51 -46 -61 -12 -11 -21 -30 -21 -43 0 -13 -6 -23 -14 -23 -21 0 -28 16
-21 41 6 17 9 19 16 8 7 -12 9 -11 10 1 1 8 1 18 0 23 0 4 4 6 11 5 7 -2 12 2
13 9 0 6 3 14 7 18 4 4 4 13 1 21 -6 16 17 15 30 -1 5 -5 6 3 3 18 -4 15 -4
32 -1 37 8 13 25 13 25 0z m370 -55 c-7 -8 -18 -15 -24 -15 -6 0 -16 -10 -21
-22 -6 -13 -21 -24 -35 -26 -22 -3 -20 2 25 47 31 32 53 47 59 41 6 -6 4 -15
-4 -25z m-170 -7 c-31 -59 -66 -107 -79 -108 -9 0 -5 11 13 33 14 17 36 49 48
69 23 40 38 45 18 6z m-120 15 c-1 -14 -30 -47 -36 -41 -6 7 17 48 28 48 5 0
8 -3 8 -7z m608 -5 c-3 -7 -11 -13 -18 -13 -7 0 -14 -10 -15 -23 -1 -12 -6
-27 -12 -33 -6 -6 -8 1 -6 23 l4 33 -26 -29 c-19 -20 -29 -26 -37 -18 -13 13
37 63 57 56 7 -3 16 -1 20 5 9 15 38 14 33 -1z m-414 -38 c-10 -16 -19 -28
-21 -26 -5 5 22 56 30 56 5 0 0 -13 -9 -30z m-186 0 c-14 -22 -24 -19 -15 5 4
8 11 15 17 15 6 0 6 -7 -2 -20z m477 10 c-4 -6 -10 -8 -14 -5 -10 5 -45 -33
-55 -59 -10 -28 -17 -14 -10 21 4 20 15 33 32 40 36 14 55 15 47 3z m126 -13
c-10 -9 -11 -8 -5 6 3 10 9 15 12 12 3 -3 0 -11 -7 -18z m151 -9 c-7 -7 -12
-8 -12 -2 0 6 3 14 7 17 3 4 9 5 12 2 2 -3 -1 -11 -7 -17z m-812 -8 c0 -5 -4
-10 -10 -10 -5 0 -10 5 -10 10 0 6 5 10 10 10 6 0 10 -4 10 -10z m436 -32 c-4
-24 -10 -63 -13 -88 -7 -57 -10 -60 -32 -31 -13 17 -24 22 -36 17 -14 -5 -16
-9 -7 -18 17 -17 15 -33 -2 -19 -10 8 -13 23 -9 45 4 24 1 35 -10 39 -17 6
-32 -19 -17 -28 6 -4 10 -10 10 -16 0 -5 -11 1 -25 13 -24 21 -35 46 -16 33 5
-3 12 -1 15 4 3 5 -1 11 -8 14 -8 3 -17 1 -19 -6 -3 -9 -8 -9 -18 1 -20 19
-31 14 -19 -8 9 -16 8 -19 -6 -13 -28 11 -12 -13 59 -87 38 -38 79 -73 93 -76
25 -6 28 -16 15 -47 -6 -16 -12 -12 -48 27 -22 25 -38 47 -35 50 3 3 -3 6 -13
6 -10 0 -16 3 -12 6 7 7 -17 34 -31 34 -5 0 -15 7 -22 15 -18 22 -30 18 -30
-8 0 -13 -5 -28 -11 -34 -7 -7 -1 -19 23 -42 18 -17 36 -31 41 -31 4 0 7 -4 7
-10 0 -18 -18 -10 -58 26 -22 20 -44 37 -48 37 -4 1 -31 26 -61 55 -48 48 -56
52 -86 47 -24 -5 -37 -1 -54 15 -13 11 -23 17 -23 13 0 -4 -5 -2 -11 4 -8 8
-6 17 10 34 11 13 21 19 21 15 0 -5 7 -3 15 4 14 11 19 7 16 -12 0 -4 6 -5 14
-2 8 4 15 12 15 19 0 14 18 30 26 23 4 -5 -15 -68 -23 -78 -2 -2 -9 2 -14 10
-9 12 -10 12 -5 -2 3 -10 0 -18 -6 -18 -6 0 -9 -2 -7 -4 2 -3 33 2 68 10 49
12 66 12 77 3 12 -10 13 -9 8 5 -5 12 -2 17 7 15 8 -1 21 0 29 4 16 6 68 19
85 22 6 0 21 6 35 12 43 18 80 24 80 13 0 -5 -6 -10 -12 -10 -7 0 0 -7 16 -15
36 -19 53 -9 30 17 -16 16 -16 21 -4 28 33 21 43 12 36 -32z m203 11 c-13 -26
-23 -18 -14 10 3 12 11 19 16 16 5 -4 5 -14 -2 -26z m-429 6 c0 -8 -6 -15 -12
-15 -7 0 -23 -3 -36 -6 -18 -5 -21 -3 -16 11 4 10 14 15 25 12 11 -3 17 -1 13
4 -3 5 2 9 10 9 9 0 16 -7 16 -15z m700 1 c0 -2 -7 -6 -15 -10 -8 -3 -15 -1
-15 4 0 6 7 10 15 10 8 0 15 -2 15 -4z m-989 -39 c-8 -8 -11 -7 -11 4 0 20 13
34 18 19 3 -7 -1 -17 -7 -23z m639 29 c0 -11 -19 -15 -25 -6 -3 5 1 10 9 10 9
0 16 -2 16 -4z m236 -51 c15 -32 22 -60 17 -67 -5 -9 -10 -3 -15 17 -3 17 -4
5 -1 -26 3 -40 1 -59 -8 -64 -9 -6 -11 -4 -6 7 3 9 3 19 -1 22 -12 12 -28 166
-17 166 3 0 17 -25 31 -55z m-209 -41 c-24 -50 -33 -61 -35 -44 -2 12 3 27 11
33 8 7 21 27 28 45 8 17 17 32 21 32 4 0 -7 -30 -25 -66z m284 43 c-10 -9 -11
-8 -5 6 3 10 9 15 12 12 3 -3 0 -11 -7 -18z m-374 -29 c-3 -7 -5 -2 -5 12 0
14 2 19 5 13 2 -7 2 -19 0 -25z m38 1 c-9 -16 -23 -33 -30 -36 -8 -3 -12 -10
-8 -16 3 -5 1 -7 -4 -4 -6 4 -22 -8 -37 -25 -14 -17 -27 -30 -29 -27 -8 9 19
113 31 117 6 2 12 -3 12 -11 0 -22 30 -30 37 -9 6 14 31 41 41 42 1 0 -5 -14
-13 -31z m137 -51 c2 -27 0 -48 -4 -48 -8 0 -16 112 -9 125 6 11 8 -2 13 -77z
m193 27 c0 -14 -3 -25 -7 -25 -10 0 -10 34 -1 43 3 4 7 7 7 7 1 0 1 -11 1 -25z
m-236 -77 c-2 -7 3 -44 9 -83 7 -38 14 -113 16 -166 2 -53 7 -102 12 -110 12
-20 14 -39 3 -39 -5 0 -10 -15 -10 -32 l-2 -33 -4 29 c-3 19 -7 25 -12 17 -6
-10 -10 -9 -14 3 -4 9 -2 16 3 16 6 0 10 5 10 11 0 5 -3 8 -7 6 -5 -3 -8 27
-8 66 0 40 -3 137 -7 217 -5 101 -5 140 3 128 5 -10 9 -24 8 -30z m-89 7 c0
-8 -91 -176 -122 -225 l-28 -45 5 43 c3 30 13 51 32 68 15 14 28 32 29 41 2 9
9 20 17 25 8 4 21 28 28 53 7 25 19 45 26 45 7 0 13 -2 13 -5z m-340 -144 c47
-45 90 -79 97 -77 8 3 10 -1 6 -11 -5 -12 -2 -15 9 -10 9 3 24 -1 35 -9 17
-14 16 -14 -4 -4 -30 14 -32 -9 -3 -35 11 -10 18 -20 16 -23 -3 -2 -76 67
-163 153 -158 158 -153 168 7 16z m170 125 c0 -3 -4 -8 -10 -11 -5 -3 -10 -1
-10 4 0 6 5 11 10 11 6 0 10 -2 10 -4z m320 -6 c0 -5 -4 -10 -10 -10 -5 0 -10
5 -10 10 0 6 5 10 10 10 6 0 10 -4 10 -10z m-290 -20 c0 -5 -7 -10 -15 -10 -8
0 -15 5 -15 10 0 6 7 10 15 10 8 0 15 -4 15 -10z m184 -205 c3 -72 8 -155 12
-185 4 -30 4 -52 0 -49 -13 12 -36 219 -35 324 1 147 16 88 23 -90z m-143 142
c-10 -9 -11 -8 -5 6 3 10 9 15 12 12 3 -3 0 -11 -7 -18z m-275 -61 c-2 -6 -1
-7 2 -3 6 11 102 -83 102 -99 0 -7 8 -15 18 -18 48 -16 76 -80 62 -141 -8 -34
-15 -23 -25 38 -3 20 -10 37 -14 37 -5 0 -7 12 -4 28 l3 27 -10 -25 c-6 -13
-9 -43 -6 -65 3 -22 3 -32 0 -22 -3 9 -9 15 -14 12 -4 -3 -6 5 -3 17 5 18 3
21 -7 11 -8 -7 -10 -19 -5 -30 5 -10 7 -21 7 -25 -1 -4 5 -39 13 -78 17 -81
18 -91 6 -70 -5 8 -12 39 -16 67 -4 29 -11 56 -16 59 -6 3 -7 -5 -3 -19 7 -29
-9 -67 -20 -48 -4 6 -3 11 3 11 12 0 4 58 -11 77 -8 10 -17 51 -32 141 -3 13
-10 29 -16 37 -6 8 -9 19 -5 25 11 17 -7 11 -21 -7 -16 -21 -18 -37 -5 -28 6
3 8 -4 6 -15 -3 -13 1 -20 13 -20 12 0 13 -3 4 -12 -7 -7 -12 -19 -11 -27 0
-9 4 -6 10 8 5 13 12 21 15 18 3 -3 1 -15 -6 -26 -10 -21 -9 -32 15 -151 3
-14 8 -31 10 -37 2 -7 1 -13 -3 -13 -4 0 -27 89 -51 198 -23 108 -45 208 -48
222 -5 24 -4 24 30 -9 19 -18 34 -38 33 -45z m535 -56 c-5 -24 -5 -24 -12 5
-4 17 -7 53 -7 80 l0 50 12 -55 c6 -30 9 -66 7 -80z m221 69 c10 -7 9 -9 -3
-9 -9 0 -19 -7 -23 -15 -12 -31 -27 -15 -21 23 11 61 17 70 26 38 4 -16 14
-33 21 -37z m-389 -11 c-10 -53 -24 -19 -15 37 1 6 5 6 11 0 5 -6 7 -22 4 -37z
m287 -8 c0 -17 -12 -40 -21 -40 -5 0 -9 13 -9 30 0 22 4 28 15 24 8 -4 15 -10
15 -14z m-460 6 c0 -2 3 -11 6 -20 9 -23 -9 -20 -24 4 -10 17 -10 20 3 20 8 0
15 -2 15 -4z m184 -106 c-2 -18 -6 -35 -8 -38 -9 -8 -18 67 -11 89 8 23 8 23
15 3 4 -11 6 -35 4 -54z m346 39 c6 -10 7 -19 2 -19 -5 0 -14 12 -20 26 -14
29 2 24 18 -7z m-401 -87 c1 -21 -3 -31 -9 -27 -6 4 -8 15 -5 25 3 10 2 36 -4
58 -5 23 -6 44 -2 47 7 8 20 -55 20 -103z m336 58 c-3 -5 -11 -10 -16 -10 -6
0 -7 5 -4 10 3 6 11 10 16 10 6 0 7 -4 4 -10z m-391 -89 c-6 -6 -24 19 -24 34
1 6 7 1 15 -9 8 -11 12 -22 9 -25z m98 7 c-7 -7 -12 -8 -12 -2 0 14 12 26 19
19 2 -3 -1 -11 -7 -17z m316 -3 c-2 -15 -6 -21 -11 -16 -6 6 -7 17 -4 25 9 24
17 19 15 -9z m-131 -7 c-3 -8 -6 -5 -6 6 -1 11 2 17 5 13 3 -3 4 -12 1 -19z
m-267 -85 c0 -56 -19 -75 -21 -20 0 17 -2 43 -4 57 -1 14 0 29 3 34 10 17 22
-21 22 -71z m100 -7 c0 -3 -4 -8 -10 -11 -5 -3 -10 -1 -10 4 0 6 5 11 10 11 6
0 10 -2 10 -4z m676 -55 c4 -22 -13 2 -20 29 -7 23 -6 24 6 5 7 -11 13 -26 14
-34z m-866 29 c0 -5 -4 -10 -10 -10 -5 0 -10 5 -10 10 0 6 5 10 10 10 6 0 10
-4 10 -10z m310 -51 c0 -16 4 -29 8 -29 4 0 9 -16 10 -37 2 -20 6 -41 9 -46 3
-6 1 -7 -5 -3 -7 4 -12 17 -12 29 0 12 -7 40 -15 62 -17 48 -19 68 -5 60 6 -3
10 -19 10 -36z m598 9 c6 -18 13 -41 17 -50 4 -10 3 -18 -3 -18 -6 0 -13 15
-17 33 -4 17 -9 40 -11 50 -3 9 -3 17 0 17 3 0 9 -15 14 -32z m-911 0 c-3 -8
-6 -5 -6 6 -1 11 2 17 5 13 3 -3 4 -12 1 -19z m387 -9 c3 -17 6 -41 5 -53 -1
-19 -2 -18 -8 4 -17 57 -21 80 -12 80 4 0 11 -14 15 -31z m-283 -39 c-4 -11
-7 -8 -12 10 -12 42 -9 56 4 30 8 -14 11 -32 8 -40z m524 30 c3 -5 -1 -10 -9
-10 -9 0 -16 5 -16 10 0 6 4 10 9 10 6 0 13 -4 16 -10z m-719 -9 c-3 -5 4 -42
16 -82 21 -67 23 -71 29 -44 6 29 7 29 8 4 0 -15 -5 -38 -12 -52 -14 -26 -14
-26 -25 21 -7 26 -15 58 -17 72 -3 14 -8 40 -11 58 -4 21 -2 32 5 32 7 0 10
-4 7 -9z m-66 -119 c21 -111 21 -121 6 -171 -9 -29 -14 -57 -11 -61 3 -4 -2
-11 -11 -14 -12 -5 -15 -2 -9 11 3 10 11 40 16 66 5 27 11 53 14 58 4 5 2 9
-4 9 -5 0 -13 -9 -16 -20 -8 -25 -29 -15 -22 11 3 12 0 19 -10 19 -8 0 -11 5
-8 10 4 6 10 8 15 5 10 -6 15 1 24 39 6 25 5 28 -13 23 -18 -4 -19 -1 -15 27
5 25 0 20 -22 -24 -15 -30 -29 -71 -31 -90 l-3 -35 15 25 c8 14 14 19 15 12 0
-7 -15 -26 -32 -43 -18 -16 -27 -29 -20 -29 6 0 12 5 12 12 0 6 3 9 6 6 11
-12 -21 -49 -38 -44 -18 4 -28 -11 -20 -32 3 -9 8 -8 18 5 13 16 13 15 3 -9
l-12 -27 -28 32 c-24 28 -26 35 -15 52 7 11 34 59 61 107 26 48 53 84 58 81 6
-3 7 -1 3 5 -6 10 39 102 49 102 2 0 13 -53 25 -118z m366 96 c0 -13 3 -50 7
-83 7 -59 7 -59 -6 -20 -15 47 -21 125 -10 125 4 0 8 -10 9 -22z m787 -3 c16
6 40 -10 36 -23 -3 -7 -15 -6 -36 5 -19 9 -30 20 -26 26 5 8 8 8 10 0 3 -7 10
-10 16 -8z m-866 -57 c18 -20 23 -115 7 -115 -6 0 -16 9 -23 19 -8 13 -8 18 0
18 7 0 9 8 4 23 -16 55 -22 86 -17 92 4 3 8 0 11 -7 2 -7 10 -20 18 -30z m133
16 c0 -8 -4 -14 -10 -14 -5 0 -10 9 -10 21 0 11 5 17 10 14 6 -3 10 -13 10
-21z m-313 -16 c-3 -7 -5 -2 -5 12 0 14 2 19 5 13 2 -7 2 -19 0 -25z m893 12
c0 -5 -4 -10 -10 -10 -5 0 -10 5 -10 10 0 6 5 10 10 10 6 0 10 -4 10 -10z
m240 -35 c0 -5 -5 -3 -10 5 -5 8 -10 20 -10 25 0 6 5 3 10 -5 5 -8 10 -19 10
-25z m-1063 -7 c-3 -8 -6 -5 -6 6 -1 11 2 17 5 13 3 -3 4 -12 1 -19z m-127
-26 c0 -7 -4 -10 -10 -7 -5 3 -10 16 -10 28 0 18 2 19 10 7 5 -8 10 -21 10
-28z m775 1 c5 -18 3 -22 -9 -17 -11 4 -16 1 -16 -10 0 -9 -6 -16 -14 -16 -8
0 -22 -3 -30 -6 -12 -5 -15 -2 -10 9 3 9 12 13 21 10 9 -4 14 0 13 8 -5 30 0
41 16 35 12 -5 15 -2 10 11 -5 12 -4 14 2 8 5 -5 13 -20 17 -32z m105 6 c0 -6
-4 -7 -10 -4 -5 3 -10 11 -10 16 0 6 5 7 10 4 6 -3 10 -11 10 -16z m-200 -10
c0 -6 -4 -7 -10 -4 -5 3 -10 11 -10 16 0 6 5 7 10 4 6 -3 10 -11 10 -16z m489
-25 c24 -21 38 -41 34 -50 -3 -8 3 -17 13 -21 19 -6 54 -37 54 -47 0 -14 -44
15 -94 61 -31 29 -58 53 -61 53 -8 0 3 40 11 40 2 0 22 -16 43 -36z m171 28
c0 -5 -7 -9 -15 -9 -8 0 -15 4 -15 9 0 4 7 8 15 8 8 0 15 -4 15 -8z m-883 -24
c-3 -8 -6 -5 -6 6 -1 11 2 17 5 13 3 -3 4 -12 1 -19z m553 18 c0 -2 -7 -7 -16
-10 -8 -3 -12 -2 -9 4 6 10 25 14 25 6z m-402 -77 c-19 -12 -28 0 -28 34 l0
32 20 -30 c14 -21 16 -31 8 -36z m-725 36 c-3 -9 -8 -14 -10 -11 -3 3 -2 9 2
15 9 16 15 13 8 -4z m1137 11 c0 -3 -4 -8 -10 -11 -5 -3 -10 -1 -10 4 0 6 5
11 10 11 6 0 10 -2 10 -4z m-683 -38 c-3 -8 -6 -5 -6 6 -1 11 2 17 5 13 3 -3
4 -12 1 -19z m196 7 c4 -8 2 -17 -3 -20 -6 -4 -10 3 -10 14 0 25 6 27 13 6z
m324 -18 c-18 -33 -47 -71 -47 -62 0 18 44 94 51 89 5 -3 3 -15 -4 -27z m73
-24 c-10 -26 -23 -49 -29 -51 -6 -2 -11 -2 -11 1 0 7 51 97 55 97 2 0 -5 -21
-15 -47z m-663 0 c-3 -10 -5 -4 -5 12 0 17 2 24 5 18 2 -7 2 -21 0 -30z m213
6 c0 -5 -4 -9 -10 -9 -5 0 -10 7 -10 16 0 8 5 12 10 9 6 -3 10 -10 10 -16z
m-133 -21 c-3 -7 -5 -2 -5 12 0 14 2 19 5 13 2 -7 2 -19 0 -25z m1250 10 c-3
-8 -6 -5 -6 6 -1 11 2 17 5 13 3 -3 4 -12 1 -19z m-456 -11 c-13 -13 -26 -3
-16 12 3 6 11 8 17 5 6 -4 6 -10 -1 -17z m-481 4 c0 -23 -23 -70 -32 -65 -6 4
-8 -1 -4 -12 6 -20 -6 -47 -20 -44 -5 1 -10 -4 -12 -12 -2 -9 0 -8 7 2 10 13
11 13 11 0 0 -8 -5 -22 -10 -30 -8 -12 -10 -12 -10 -1 0 14 -15 7 -15 -7 -1
-4 -11 -28 -22 -54 -23 -50 -38 -64 -29 -25 3 12 -3 2 -15 -23 -11 -24 -25
-47 -31 -51 -7 -5 -7 -8 0 -13 6 -4 15 2 21 11 6 10 11 13 11 6 0 -6 3 -20 6
-30 4 -13 3 -14 -4 -5 -7 11 -10 11 -15 -2 -7 -18 -37 -22 -37 -5 0 5 6 7 13
4 6 -4 4 0 -6 8 -18 15 -18 17 -2 41 10 14 15 32 12 40 -3 8 0 17 7 19 7 3 21
31 31 62 9 31 23 59 31 62 7 2 10 12 7 20 -4 10 -2 14 4 10 5 -3 20 13 33 36
13 23 27 48 33 55 11 14 37 16 37 3z m-754 -88 c-9 -26 -16 -52 -16 -59 0 -7
-5 -25 -10 -40 -17 -45 -32 -15 -16 31 8 22 20 60 27 85 16 58 23 69 27 47 2
-10 -3 -39 -12 -64z m374 45 c0 -36 -12 -31 -16 7 -1 14 2 25 7 25 5 0 9 -14
9 -32z m914 24 c2 -4 1 -14 -3 -21 -7 -10 -13 -10 -30 -2 -27 15 -27 25 -1 18
11 -3 18 -1 14 4 -3 5 -1 9 5 9 5 0 12 -4 15 -8z m-652 -37 c-2 -14 -8 -25
-13 -25 -12 0 -11 7 1 31 14 26 18 24 12 -6z m473 15 c3 -5 -1 -10 -9 -10 -9
0 -16 5 -16 10 0 6 4 10 9 10 6 0 13 -4 16 -10z m-527 -27 c-1 -16 -8 -36 -16
-45 -15 -18 -9 -53 8 -43 14 9 13 -1 -6 -36 -8 -17 -18 -29 -21 -26 -2 3 1 15
7 27 6 12 9 24 6 27 -8 9 -27 -8 -36 -32 -6 -15 -16 -23 -29 -22 -11 0 -17 5
-14 10 3 4 12 6 20 3 11 -4 13 -2 9 9 -3 8 0 15 6 15 6 0 9 3 5 6 -8 8 31 116
46 126 17 11 17 11 15 -19z m316 -21 c-4 -12 -9 -22 -13 -22 -4 0 -7 -9 -8
-21 -3 -30 -33 -73 -44 -62 -11 11 -1 43 13 43 5 0 6 5 3 10 -3 6 -1 10 6 10
7 0 10 3 6 6 -3 4 0 13 8 21 8 8 15 24 15 36 0 13 3 18 10 11 5 -5 7 -19 4
-32z m361 10 c-3 -3 1 -12 8 -21 11 -14 10 -14 -5 -2 -27 20 -22 -2 6 -28 18
-17 25 -19 29 -9 4 9 6 7 6 -4 1 -10 6 -18 13 -18 6 0 9 -3 6 -6 -4 -3 -16 -1
-27 6 -47 25 -16 -19 53 -74 39 -32 46 -46 19 -41 -10 2 -21 4 -24 4 -4 1 -9
10 -12 21 -3 11 -11 20 -18 20 -7 0 -9 -3 -6 -7 4 -3 -1 -12 -11 -19 -27 -20
-50 0 -50 43 0 29 2 33 10 20 5 -10 14 -15 19 -11 6 4 -1 19 -18 36 l-28 30
25 -6 c22 -6 20 -2 -15 29 -29 27 -34 35 -18 30 18 -5 21 -3 15 17 -5 21 -4
22 12 9 9 -8 14 -16 11 -19z m155 13 c14 -16 10 -18 -14 -9 -9 3 -16 10 -16
15 0 14 16 11 30 -6z m-922 -47 c-11 -29 -28 -72 -37 -95 -9 -24 -19 -43 -23
-43 -4 0 -3 12 2 26 12 31 12 34 1 34 -4 0 -16 -30 -26 -67 -10 -38 -29 -90
-42 -117 -14 -27 -22 -57 -20 -67 3 -11 2 -17 -3 -14 -9 6 -23 -25 -15 -33 3
-3 5 0 5 6 0 7 6 12 14 12 9 0 12 -7 9 -20 -4 -14 -11 -19 -23 -15 -13 4 -21
-3 -29 -27 -21 -56 -50 -114 -47 -93 2 11 8 33 14 48 7 16 12 36 12 46 0 9 4
21 9 27 13 15 34 101 26 113 -3 6 -2 11 3 11 10 0 51 100 59 143 2 15 15 51
29 80 13 29 24 58 24 65 0 6 4 12 9 12 5 0 16 3 25 6 11 4 16 0 17 -12 0 -16
2 -15 9 4 5 12 12 22 15 22 2 0 -5 -24 -17 -52z m637 42 c3 -5 1 -10 -4 -10
-6 0 -11 5 -11 10 0 6 2 10 4 10 3 0 8 -4 11 -10z m211 -12 c1 -12 -2 -13 -22
-4 -30 14 -31 23 -2 21 12 -1 22 -8 24 -17z m-1531 -75 c-9 -185 -49 -751 -64
-903 -6 -54 -10 -70 -16 -55 -5 11 -20 38 -35 60 -15 22 -45 69 -68 105 -23
36 -46 70 -52 77 -5 7 -10 15 -10 18 0 3 -5 11 -11 18 -9 11 -31 44 -64 96
-37 60 -112 169 -127 185 -17 19 -11 26 215 252 127 129 233 234 234 234 1 0
0 -39 -2 -87z m285 80 c0 -5 5 -37 10 -72 7 -51 6 -68 -6 -85 -12 -18 -14 -18
-14 -3 0 10 -4 16 -9 12 -13 -8 -19 25 -9 53 5 15 4 22 -4 22 -9 0 -9 3 0 12
7 7 12 25 12 40 0 15 5 28 10 28 6 0 10 -3 10 -7z m170 -15 c0 -16 -3 -19 -11
-11 -6 6 -8 16 -5 22 11 17 16 13 16 -11z m1340 -23 c10 -15 7 -14 -13 4 -15
14 -27 29 -27 33 0 10 16 -5 40 -37z m-65 17 c-3 -3 -11 0 -18 7 -9 10 -8 11
6 5 10 -3 15 -9 12 -12z m-1138 -19 c-9 -20 -13 -22 -15 -10 -3 13 -8 14 -29
6 -14 -5 -28 -7 -31 -5 -3 3 1 8 9 10 11 4 67 22 76 25 2 1 -3 -11 -10 -26z
m619 5 c9 -7 39 -34 67 -60 28 -27 55 -49 59 -49 5 -1 14 -2 21 -3 6 -1 11 -7
10 -13 -2 -7 9 -21 24 -33 14 -11 24 -23 20 -26 -3 -3 -16 3 -29 14 -12 11
-45 38 -71 61 -55 47 -84 64 -95 57 -5 -3 -21 6 -38 19 -19 16 -24 24 -13 25
8 0 21 -6 29 -12 8 -7 6 -3 -4 10 -21 24 -6 31 20 10z m164 -25 c0 -19 -13 -9
-16 12 -1 8 2 13 7 9 5 -3 9 -12 9 -21z m-580 7 c0 -5 -4 -10 -10 -10 -5 0
-10 5 -10 10 0 6 5 10 10 10 6 0 10 -4 10 -10z m820 -17 c0 -12 -3 -13 -13 -4
-8 6 -18 7 -23 3 -4 -4 -2 1 5 10 15 20 31 15 31 -9z m-710 -20 c-11 -17 -11
-17 -6 0 3 10 6 24 7 30 0 9 2 9 5 0 3 -7 0 -20 -6 -30z m880 27 c0 -5 -2 -10
-4 -10 -3 0 -8 5 -11 10 -3 6 -1 10 4 10 6 0 11 -4 11 -10z m-1447 -30 c3 -11
1 -20 -4 -20 -5 0 -9 9 -9 20 0 11 2 20 4 20 2 0 6 -9 9 -20z m1067 10 c0 -5
-4 -10 -10 -10 -5 0 -10 5 -10 10 0 6 5 10 10 10 6 0 10 -4 10 -10z m160 -26
c0 -19 -16 -10 -31 17 -10 19 -9 20 10 9 12 -6 21 -18 21 -26z m-1384 -25
c-18 -41 -21 -26 -4 22 6 18 13 29 15 23 2 -6 -3 -26 -11 -45z m1498 5 c20
-20 36 -39 36 -44 0 -4 7 -13 15 -20 8 -7 15 -16 15 -20 0 -10 -33 -9 -47 2
-7 5 -14 5 -18 -2 -3 -5 -11 -10 -16 -10 -6 0 -7 5 -4 10 3 6 1 10 -6 10 -7 0
-9 3 -6 7 4 3 0 15 -10 25 -9 10 -11 18 -5 18 6 0 17 -11 24 -25 10 -17 17
-22 28 -15 12 7 10 13 -11 32 -14 13 -23 30 -21 37 3 8 0 11 -7 7 -6 -4 -11
-1 -11 8 0 22 3 21 44 -20z m76 21 c7 -8 8 -15 2 -15 -5 0 -15 7 -22 15 -7 8
-8 15 -2 15 5 0 15 -7 22 -15z m-620 -3 c0 -4 14 -16 30 -25 17 -10 30 -22 30
-28 0 -5 -10 -3 -23 6 -13 8 -27 12 -31 8 -4 -5 -6 -1 -4 7 2 9 -6 16 -19 18
-28 4 -30 22 -3 22 11 0 20 -4 20 -8z m-1360 -22 c-21 -21 -35 -27 -25 -10 3
6 3 10 0 10 -8 0 -49 -21 -55 -29 -3 -3 -22 -14 -43 -24 -25 -11 -43 -28 -50
-47 -6 -16 -19 -31 -29 -33 -12 -3 -16 -1 -11 6 6 11 63 98 69 105 3 5 134 40
152 41 7 1 3 -8 -8 -19z m785 10 c3 -5 1 -10 -4 -10 -6 0 -11 5 -11 10 0 6 2
10 4 10 3 0 8 -4 11 -10z m-28 -22 c-3 -8 -6 -5 -6 6 -1 11 2 17 5 13 3 -3 4
-12 1 -19z m743 12 c0 -5 -2 -10 -4 -10 -3 0 -8 5 -11 10 -3 6 -1 10 4 10 6 0
11 -4 11 -10z m-206 -26 c9 -22 -3 -32 -14 -14 -12 19 -12 30 -1 30 5 0 12 -7
15 -16z m-341 -9 c-3 -9 -8 -14 -10 -11 -3 3 -2 9 2 15 9 16 15 13 8 -4z
m-983 1 c0 -3 -4 -8 -10 -11 -5 -3 -10 -1 -10 4 0 6 5 11 10 11 6 0 10 -2 10
-4z m349 -69 c7 -20 17 -39 22 -43 5 -3 7 -10 3 -15 -7 -12 15 -41 26 -34 4 3
11 -2 14 -11 3 -8 2 -12 -4 -9 -6 3 -10 2 -10 -4 0 -5 3 -11 8 -13 4 -1 14
-16 24 -33 9 -16 26 -35 37 -41 12 -6 18 -13 15 -17 -3 -3 -1 -15 6 -26 9 -18
8 -21 -11 -21 -12 0 -20 3 -16 6 6 7 4 11 -47 70 -20 23 -36 46 -36 51 0 6 -6
16 -13 22 -13 11 -42 89 -39 104 1 4 -7 16 -17 26 -12 12 -17 27 -14 41 5 20
6 20 23 2 9 -10 23 -35 29 -55z m1234 59 c4 -10 1 -13 -9 -9 -15 6 -19 23 -5
23 5 0 11 -7 14 -14z m-1567 -31 c-18 -27 -36 -33 -36 -11 0 13 41 47 49 40 2
-2 -4 -15 -13 -29z m904 31 c0 -3 -4 -8 -10 -11 -5 -3 -10 -1 -10 4 0 6 5 11
10 11 6 0 10 -2 10 -4z m404 -55 c-4 -3 -9 0 -11 7 -3 6 -14 12 -24 12 -14 0
-18 -4 -13 -12 5 -9 2 -8 -9 1 -17 13 -17 15 0 30 16 16 19 16 40 -8 13 -13
20 -27 17 -30z m96 48 c0 -5 4 -7 10 -4 5 3 22 -7 38 -23 35 -36 59 -45 66
-25 9 21 -3 36 -25 30 -22 -6 -46 17 -29 28 15 9 61 -23 67 -46 3 -10 9 -17
13 -14 5 3 11 1 15 -5 3 -5 2 -10 -4 -10 -14 0 17 -58 37 -69 12 -7 6 -9 -22
-8 -29 1 -40 6 -46 23 -12 31 -51 57 -62 41 -6 -8 -8 -5 -6 8 2 14 -2 20 -15
19 -10 -1 -16 1 -13 4 4 3 -6 18 -21 34 -15 15 -21 28 -15 28 7 0 12 -5 12
-11z m-918 -19 c17 0 38 -28 39 -52 0 -13 4 -32 9 -43 7 -16 9 -12 10 20 2 22
6 54 9 70 7 29 8 29 15 -15 5 -25 14 -70 22 -100 8 -30 14 -65 14 -79 0 -24
-1 -24 -15 -5 -8 10 -15 33 -15 49 -1 26 -3 27 -10 10 -8 -20 -8 -20 -16 -1
-4 11 -14 27 -21 35 -64 76 -72 88 -66 112 4 13 8 18 11 11 2 -6 8 -12 14 -12z
m649 -7 c-12 -20 -14 -14 -5 12 4 9 9 14 11 11 3 -2 0 -13 -6 -23z m-857 -25
c-9 -14 -24 2 -24 25 1 21 1 21 15 3 8 -10 12 -23 9 -28z m557 -30 c-25 -53
-26 -43 -4 25 10 29 19 44 21 35 2 -9 -6 -36 -17 -60z m836 26 c-29 -28 -32
-23 -12 17 13 24 19 29 26 18 5 -9 1 -21 -14 -35z m-801 -1 c-8 -15 -15 -25
-16 -21 0 12 23 58 27 54 3 -2 -2 -17 -11 -33z m544 18 c0 -3 -5 -13 -11 -21
-9 -13 -10 -13 -6 0 2 8 -3 20 -12 27 -14 10 -13 11 7 6 12 -3 22 -8 22 -12z
m420 -12 c0 -11 -4 -18 -10 -14 -5 3 -7 12 -3 20 7 21 13 19 13 -6z m-610 1
c0 -5 -14 -22 -30 -37 -21 -19 -28 -32 -24 -46 4 -14 2 -18 -7 -15 -8 3 -33
-10 -55 -28 -72 -58 -58 -23 23 58 75 76 93 89 93 68z m480 -27 c0 -13 -3 -13
-15 -3 -8 7 -12 16 -9 21 8 13 24 1 24 -18z m180 -9 c0 -18 -14 -18 -30 1 -16
19 -3 40 16 24 8 -6 14 -18 14 -25z m97 10 c3 -8 17 -14 32 -14 24 1 24 2 9
14 -22 16 -23 26 -3 26 8 0 16 -7 16 -15 3 -30 4 -35 9 -33 3 2 16 -5 30 -15
13 -9 34 -17 45 -18 11 0 14 -3 8 -6 -7 -2 -13 -9 -13 -14 0 -6 5 -7 10 -4 6
3 10 0 10 -7 0 -10 2 -10 9 1 6 9 10 4 13 -18 2 -17 0 -31 -5 -31 -5 0 -34 25
-64 55 -58 58 -73 66 -73 39 0 -14 -2 -15 -17 -3 -11 10 -14 10 -9 2 4 -7 3
-13 -2 -13 -15 0 -33 26 -24 35 4 5 1 5 -5 1 -8 -4 -13 -1 -13 8 0 10 -9 16
-22 16 -16 0 -19 3 -10 9 18 11 62 1 69 -15z m-2107 6 c0 -11 -42 -52 -48 -46
-7 8 19 46 29 41 5 -4 9 -1 9 4 0 6 2 11 5 11 3 0 5 -4 5 -10z m80 3 c0 -14
-74 -83 -89 -83 -9 0 3 18 30 45 42 43 59 53 59 38z m350 -53 c0 -4 -11 -12
-25 -18 -30 -14 -31 -22 -6 -53 22 -29 71 -124 71 -139 0 -5 -4 -10 -10 -10
-5 0 -10 6 -10 13 0 7 -10 13 -22 14 -13 0 -17 -1 -10 -4 13 -5 17 -23 4 -23
-14 0 -33 48 -22 55 16 10 11 23 -7 21 -11 0 -21 -13 -25 -31 -4 -16 -5 17 -2
74 6 115 9 128 30 110 17 -14 18 -6 3 24 -10 21 -9 21 10 -2 12 -13 21 -26 21
-31z m130 19 c0 -5 -9 -9 -20 -9 -11 0 -20 4 -20 10 0 5 7 6 17 3 12 -5 14 -3
8 7 -5 9 -4 11 3 6 7 -4 12 -11 12 -17z m189 -32 c0 -33 -2 -38 -9 -22 -12 28
-12 78 0 70 6 -3 10 -25 9 -48z m353 25 c3 -11 0 -19 -8 -19 -15 0 -19 19 -7
30 9 10 10 9 15 -11z m83 -22 c-4 -12 -9 -19 -12 -17 -3 3 -2 15 2 27 4 12 9
19 12 17 3 -3 2 -15 -2 -27z m907 -7 c54 -52 47 -68 -7 -17 -25 23 -45 44 -45
48 0 14 16 4 52 -31z m-175 -26 c25 -24 37 -28 60 -23 21 5 24 4 13 -4 -8 -5
-32 -10 -52 -10 -30 0 -42 6 -62 33 -31 40 -36 67 -8 46 9 -7 31 -26 49 -42z
m-1984 22 c-6 -6 -9 -18 -6 -27 4 -10 2 -13 -5 -8 -8 5 -10 2 -6 -8 3 -9 10
-16 15 -16 16 0 10 -18 -16 -48 l-25 -30 78 -119 c43 -65 129 -194 190 -288
61 -93 118 -178 127 -187 20 -24 11 -24 -117 6 -56 13 -160 35 -230 47 -102
19 -127 27 -123 39 2 8 7 103 11 210 13 394 11 365 29 350 13 -10 18 -11 28
-1 9 10 8 11 -5 6 -11 -4 -18 -2 -18 4 0 13 73 91 79 85 3 -2 0 -9 -6 -15z
m1508 8 c-6 -8 -9 -16 -6 -19 3 -3 -3 -11 -12 -19 -16 -13 -17 -12 -4 4 16 21
-1 23 -19 2 -7 -8 -18 -15 -24 -15 -6 1 5 14 24 30 35 31 61 41 41 17z m-957
-85 c15 -31 30 -64 35 -72 30 -57 41 -83 36 -88 -3 -3 -6 -3 -7 -1 -25 41
-118 226 -118 234 0 19 30 -22 54 -73z m106 63 c0 -8 -4 -15 -9 -15 -13 0 -22
16 -14 24 11 11 23 6 23 -9z m373 -17 c-3 -16 -9 -28 -14 -28 -8 0 -4 33 6 51
11 16 14 7 8 -23z m154 -3 c-15 -16 -19 -13 -11 9 3 9 10 13 15 10 5 -3 3 -11
-4 -19z m163 4 c0 -12 -4 -17 -11 -14 -5 4 -20 -1 -32 -11 -12 -10 -9 -4 7 14
35 38 36 38 36 11z m322 10 c1 5 14 1 27 -10 13 -10 18 -19 11 -19 -10 0 -10
-3 0 -15 21 -25 -6 -17 -31 10 -13 13 -30 25 -37 25 -7 0 -10 5 -7 10 5 8 11
8 20 0 8 -7 14 -7 17 -1z m98 -14 c0 -8 -2 -15 -4 -15 -2 0 -6 7 -10 15 -3 8
-1 15 4 15 6 0 10 -7 10 -15z m50 5 c0 -5 -4 -10 -9 -10 -6 0 -13 5 -16 10 -3
6 1 10 9 10 9 0 16 -4 16 -10z m-230 -7 c0 -5 -19 -25 -42 -46 -24 -21 -36
-35 -28 -31 13 7 13 5 1 -9 -7 -9 -22 -17 -32 -17 -10 0 -22 -6 -26 -12 -4 -7
-40 -35 -80 -62 -42 -28 -70 -54 -66 -60 3 -6 3 -8 -2 -4 -4 4 -17 -5 -30 -20
-27 -32 -115 -97 -115 -85 0 13 206 204 294 273 41 33 77 64 81 69 7 12 45 15
45 4z m259 -6 c8 -10 7 -14 -4 -14 -8 0 -15 6 -15 14 0 7 2 13 4 13 2 0 9 -6
15 -13z m-43 -14 c20 -27 16 -38 -6 -18 -20 18 -26 35 -14 35 4 0 13 -8 20
-17z m-1089 -25 c12 -18 20 -34 17 -37 -3 -3 -10 2 -15 11 -5 10 -16 15 -23
12 -8 -3 -17 0 -21 6 -3 6 -3 10 2 9 20 -3 25 2 13 16 -7 8 -9 15 -4 15 5 0
19 -15 31 -32z m367 0 c-4 -13 -9 -25 -9 -28 -3 -9 -17 -45 -26 -65 -5 -11
-13 -32 -19 -47 -5 -16 -14 -28 -19 -28 -9 0 34 127 51 147 6 7 7 13 2 13 -5
0 -2 5 6 10 13 9 13 10 0 10 -13 0 -13 1 0 10 19 12 23 6 14 -22z m196 -59
c-96 -90 -140 -125 -140 -111 0 5 16 22 36 37 19 15 68 56 107 91 40 35 74 64
77 64 3 -1 -33 -37 -80 -81z m144 50 c-34 -36 -66 -56 -58 -37 4 12 73 67 83
68 3 0 -8 -14 -25 -31z m701 11 c0 -8 4 -20 8 -27 4 -7 -6 -5 -25 5 -27 13
-29 17 -14 20 15 3 16 6 5 14 -11 7 -9 8 6 6 11 -2 20 -10 20 -18z m-994 -17
c-12 -20 -14 -14 -5 12 4 9 9 14 11 11 3 -2 0 -13 -6 -23z m109 12 c-7 -9 -15
-13 -19 -10 -3 3 1 10 9 15 21 14 24 12 10 -5z m807 2 c-2 -6 8 -22 22 -35
l26 -24 -31 17 c-42 23 -59 50 -32 52 11 1 18 -3 15 -10z m-946 -24 c-8 -15
-10 -15 -11 -2 0 17 10 32 18 25 2 -3 -1 -13 -7 -23z m-215 -55 c-37 -96 -38
-98 -47 -98 -12 0 -12 17 0 24 4 3 17 35 27 71 10 36 24 65 31 65 9 0 6 -18
-11 -62z m794 53 c0 -14 -137 -129 -384 -324 -150 -119 -145 -98 9 34 44 38
114 99 155 135 175 155 220 186 220 155z m124 -13 c5 -9 7 -20 4 -23 -12 -12
-46 5 -51 26 -4 16 -1 20 15 17 12 -2 26 -11 32 -20z m146 1 c0 -4 -7 -6 -15
-3 -8 4 -15 10 -15 15 0 4 7 6 15 3 8 -4 15 -10 15 -15z m-1100 1 c0 -5 -4
-10 -10 -10 -5 0 -10 5 -10 10 0 6 5 10 10 10 6 0 10 -4 10 -10z m1140 -5 c7
-8 8 -15 2 -15 -5 0 -15 7 -22 15 -7 8 -8 15 -2 15 5 0 15 -7 22 -15z m-1026
-34 c1 -16 -2 -27 -6 -24 -5 2 -13 -8 -20 -22 -10 -22 -9 -28 3 -36 10 -6 11
-9 1 -9 -7 0 -11 -4 -8 -8 2 -4 -3 -8 -13 -9 -16 -1 -16 2 2 60 11 34 22 68
24 76 5 22 16 4 17 -28z m1216 8 c0 -11 -4 -18 -9 -14 -6 3 -9 14 -8 25 2 24
17 15 17 -11z m-234 0 c5 0 9 -6 9 -14 0 -8 5 -15 10 -16 6 0 18 -8 28 -17 17
-15 17 -15 7 12 -9 26 -9 27 5 16 8 -7 15 -9 15 -4 0 4 11 -7 25 -26 32 -44
32 -55 -2 -33 -15 10 -24 12 -20 6 15 -25 -9 -12 -66 34 -42 33 -55 48 -46 54
8 4 16 3 20 -2 3 -6 10 -10 15 -10z m-1086 1 c0 -5 -5 -10 -11 -10 -5 0 -7 5
-4 10 3 6 8 10 11 10 2 0 4 -4 4 -10z m874 -35 c-19 -15 -19 -15 1 -9 15 5 17
4 9 -5 -6 -6 -19 -9 -29 -5 -17 7 -17 8 1 21 25 18 42 17 18 -2z m585 -34 c-6
-2 -15 3 -20 10 -15 24 -10 29 11 11 12 -10 16 -18 9 -21z m-1857 -21 c15 0
17 -4 9 -17 -6 -12 -6 -24 1 -37 11 -20 11 -20 -17 -2 -15 10 -25 13 -21 8 3
-6 2 -13 -4 -17 -6 -4 -10 16 -9 57 1 56 2 60 12 36 6 -17 18 -28 29 -28z
m352 35 c3 -8 1 -15 -3 -15 -5 0 -11 7 -15 15 -3 8 -1 15 3 15 5 0 11 -7 15
-15z m1076 0 c14 -16 10 -18 -14 -9 -9 3 -16 10 -16 15 0 14 16 11 30 -6z
m-1200 -25 c13 -24 12 -24 -6 -10 -10 8 -21 15 -23 17 -1 1 0 7 4 13 8 13 8
13 25 -20z m301 -18 c-6 -22 -18 -45 -26 -52 -14 -11 -14 -10 -6 13 6 15 8 35
5 44 -5 15 -4 15 4 4 9 -12 12 -10 18 12 3 16 8 26 11 23 2 -2 -1 -22 -6 -44z
m1314 0 c-3 -3 -17 5 -32 19 -22 20 -25 21 -19 5 6 -16 4 -17 -9 -6 -12 10
-13 15 -4 21 12 7 73 -30 64 -39z m-1781 22 c9 -8 16 -19 16 -24 0 -4 7 -11
16 -14 13 -5 14 -3 7 6 -5 7 -13 21 -16 30 -9 25 22 11 34 -16 6 -11 18 -37
29 -56 10 -19 16 -38 14 -42 -2 -4 6 -14 18 -23 13 -8 22 -19 22 -23 -2 -11
20 -56 30 -64 6 -4 14 -4 18 -2 16 10 8 -9 -9 -22 -24 -18 -44 -18 -37 0 3 8
-6 36 -20 63 -17 32 -25 41 -26 28 -1 -20 -1 -20 -15 -1 -17 23 -20 40 -5 31
12 -7 12 -3 4 20 -5 13 -9 14 -15 4 -5 -9 -10 -4 -15 15 -4 18 -11 25 -21 22
-8 -3 -18 4 -25 19 -6 13 -15 22 -19 19 -5 -3 -9 -1 -9 5 0 5 -3 16 -6 25 -8
21 10 21 30 0z m1701 -14 c12 -19 -12 -10 -31 11 -19 22 -19 22 3 10 12 -6 25
-16 28 -21z m-425 -21 c-64 -56 -96 -71 -40 -20 30 28 60 51 65 50 6 0 -6 -13
-25 -30z m274 -28 c-4 -3 -9 0 -11 7 -3 6 -10 9 -15 6 -7 -5 -8 -2 -3 6 6 10
4 12 -8 7 -9 -3 -19 -2 -22 3 -3 4 1 10 7 13 15 5 61 -33 52 -42z m-1294 24
c0 -8 -2 -15 -4 -15 -2 0 -6 7 -10 15 -3 8 -1 15 4 15 6 0 10 -7 10 -15z
m1336 -10 c15 -14 35 -25 44 -25 10 0 32 -13 50 -30 18 -16 38 -30 45 -30 7 0
16 -7 19 -16 5 -13 2 -15 -15 -11 -21 6 -21 5 2 -19 12 -13 28 -24 35 -24 6 0
14 -7 18 -15 3 -8 9 -14 14 -13 14 5 72 -62 72 -82 0 -24 -8 -25 -32 -3 -15
13 -18 14 -18 2 0 -21 20 -38 36 -32 10 4 14 -3 14 -23 l0 -27 -22 20 c-13 11
-31 23 -40 26 -19 7 -25 47 -8 47 6 0 3 11 -6 25 -9 14 -13 25 -9 25 3 0 -1 7
-9 16 -9 8 -20 12 -26 9 -5 -3 -10 1 -10 10 0 9 -5 13 -10 10 -6 -4 -9 -1 -8
7 2 7 -3 12 -9 11 -7 -2 -12 1 -10 6 1 6 -34 44 -78 85 -44 42 -77 76 -73 76
4 0 19 -11 34 -25z m-161 4 c11 -17 -1 -21 -15 -4 -8 9 -8 15 -2 15 6 0 14 -5
17 -11z m305 -10 c0 -6 -4 -7 -10 -4 -5 3 -10 11 -10 16 0 6 5 7 10 4 6 -3 10
-11 10 -16z m-1760 1 c0 -5 -2 -10 -4 -10 -3 0 -8 5 -11 10 -3 6 -1 10 4 10 6
0 11 -4 11 -10z m170 0 c0 -5 -2 -10 -4 -10 -3 0 -8 5 -11 10 -3 6 -1 10 4 10
6 0 11 -4 11 -10z m91 -34 c5 -6 9 -16 9 -24 0 -12 -3 -12 -17 -1 -9 8 -14 9
-10 3 4 -7 -1 -15 -11 -19 -16 -6 -16 -7 0 -16 19 -11 48 -64 48 -90 0 -29
-11 -49 -24 -42 -6 4 -6 0 2 -9 13 -16 7 -98 -8 -98 -9 0 -40 62 -40 79 0 6
-7 11 -15 11 -27 0 -16 20 21 35 31 13 35 17 24 30 -11 13 -10 14 5 9 13 -6
11 3 -11 37 -16 24 -33 47 -37 50 -12 8 10 22 22 15 5 -3 12 6 16 21 4 18 2
29 -5 31 -9 3 -8 7 1 13 10 6 15 3 17 -9 2 -9 8 -21 13 -26z m1139 40 c0 -2
-24 -19 -52 -39 -29 -19 -72 -53 -95 -74 -23 -21 -59 -48 -80 -61 -35 -22 -36
-22 -17 -3 63 66 244 197 244 177z m-970 -17 c0 -5 -4 -8 -9 -5 -13 9 -23 -25
-11 -39 7 -9 6 -16 -5 -25 -24 -20 -30 -4 -15 40 12 36 40 56 40 29z m1390
-12 c4 -12 20 -31 34 -41 25 -18 34 -36 19 -36 -9 0 -103 84 -103 91 0 3 9 5
20 6 13 1 24 -7 30 -20z m-1453 -5 c-1 -9 -10 -28 -20 -42 -18 -26 -23 -21 -8
8 5 9 12 25 15 35 7 22 17 22 13 -1z m328 -11 c-16 -16 -32 -27 -34 -25 -2 2
-18 -6 -35 -18 -28 -20 -28 -18 8 20 22 23 43 39 47 36 4 -2 10 0 14 6 3 5 12
10 18 10 7 0 -1 -13 -18 -29z m-497 1 c2 -7 -3 -12 -12 -12 -9 0 -16 7 -16 16
0 17 22 14 28 -4z m142 14 c0 -3 -4 -8 -10 -11 -5 -3 -10 -1 -10 4 0 6 5 11
10 11 6 0 10 -2 10 -4z m-417 -46 c9 -45 27 -81 37 -75 5 3 10 1 10 -4 0 -6
-5 -11 -11 -11 -5 0 -7 -6 -4 -12 4 -7 -5 1 -19 17 -19 22 -26 41 -26 74 0 47
6 52 13 11z m1637 26 c0 -3 -4 -8 -10 -11 -5 -3 -10 -1 -10 4 0 6 5 11 10 11
6 0 10 -2 10 -4z m15 -26 c3 -5 1 -10 -4 -10 -6 0 -11 5 -11 10 0 6 2 10 4 10
3 0 8 -4 11 -10z m-1292 -15 c-3 -9 -8 -14 -10 -11 -3 3 -2 9 2 15 9 16 15 13
8 -4z m482 -15 c-12 -20 -258 -230 -269 -230 -13 1 90 98 192 181 71 58 89 69
77 49z m-685 -50 c9 -16 8 -18 -5 -14 -8 4 -15 12 -15 20 0 20 7 17 20 -6z
m490 17 c0 -2 -19 -21 -42 -42 l-43 -40 40 43 c36 39 45 47 45 39z m-418 -33
c9 -18 8 -18 -5 -2 -8 10 -16 15 -19 12 -4 -3 -9 -1 -12 4 -3 6 1 9 10 8 9 -1
21 -11 26 -22z m840 3 c-18 -19 -19 -26 -9 -36 8 -9 9 -12 0 -9 -6 2 -38 -20
-70 -47 -93 -80 -157 -131 -152 -120 6 16 122 121 147 134 12 6 22 18 22 25 0
8 16 28 35 45 42 36 58 41 27 8z m-1070 -22 c-3 -5 -9 -28 -13 -50 l-6 -40 -2
47 c-1 55 8 86 20 67 4 -7 5 -18 1 -24z m1128 32 c0 -2 -10 -12 -22 -23 l-23
-19 19 23 c18 21 26 27 26 19z m-980 -48 c12 -23 20 -43 17 -45 -3 -3 -47 72
-47 82 0 14 12 -1 30 -37z m-123 -31 c-3 -7 -5 -2 -5 12 0 14 2 19 5 13 2 -7
2 -19 0 -25z m97 -47 c-6 -7 -44 31 -44 43 0 6 11 -1 24 -14 13 -14 22 -27 20
-29z m951 13 c-62 -55 -186 -147 -191 -141 -8 8 116 116 156 137 21 11 41 24
45 30 3 5 12 10 18 10 7 -1 -6 -17 -28 -36z m586 3 c-1 -12 -15 -9 -19 4 -3 6
1 10 8 8 6 -3 11 -8 11 -12z m-531 -37 c-46 -40 -120 -83 -129 -75 -9 10 75
73 111 84 20 6 40 16 43 21 3 6 9 10 13 10 4 0 -13 -18 -38 -40z m52 0 c-18
-17 -38 -30 -44 -30 -7 0 3 13 22 30 46 38 65 38 22 0z m528 18 c0 -6 7 -20
17 -30 15 -17 15 -18 -5 -18 -11 0 -23 6 -25 13 -4 9 -8 8 -16 -3 -18 -26 -23
-3 -6 24 18 27 35 34 35 14z m-1677 -17 c2 -10 1 -25 -4 -32 -6 -10 -9 -4 -9
19 0 36 5 42 13 13z m1452 9 c3 -5 1 -10 -4 -10 -6 0 -11 5 -11 10 0 6 2 10 4
10 3 0 8 -4 11 -10z m78 -10 c9 -11 14 -20 11 -20 -13 0 -44 21 -44 30 0 16
14 11 33 -10z m-763 -80 c0 -5 -5 -10 -11 -10 -5 0 -7 5 -4 10 3 6 8 10 11 10
2 0 4 -4 4 -10z m20 -39 c-19 -16 -37 -27 -40 -25 -5 6 52 53 65 54 5 0 -6
-13 -25 -29z m-669 -49 c-4 -67 -11 -66 -11 3 0 32 3 55 7 51 4 -4 6 -28 4
-54z m38 -16 c0 -6 -5 -20 -10 -31 -8 -16 -9 -15 -5 10 2 16 0 39 -5 50 -10
20 -10 20 5 1 9 -11 16 -25 15 -30z m51 40 c0 -3 -4 -8 -10 -11 -5 -3 -10 -1
-10 4 0 6 5 11 10 11 6 0 10 -2 10 -4z m80 -16 c0 -4 -9 -6 -21 -3 -15 4 -17
8 -8 14 14 8 29 3 29 -11z m-303 -12 c-3 -8 -6 -5 -6 6 -1 11 2 17 5 13 3 -3
4 -12 1 -19z m283 -28 c0 16 3 21 10 14 13 -13 1 -74 -14 -74 -14 0 -56 64
-56 86 0 12 9 6 30 -17 29 -33 30 -33 30 -9z m255 30 c-3 -5 -11 -10 -16 -10
-6 0 -7 5 -4 10 3 6 11 10 16 10 6 0 7 -4 4 -10z m-185 -24 c0 -2 -8 -10 -17
-17 -16 -13 -17 -12 -4 4 13 16 21 21 21 13z m-157 -21 c4 -8 2 -17 -3 -20 -6
-4 -10 3 -10 14 0 25 6 27 13 6z"/>
<path d="M2925 3800 c-4 -6 -11 -7 -17 -4 -7 4 -8 2 -4 -5 5 -7 -4 -30 -20
-54 -39 -58 -39 -74 -1 -68 4 0 7 -4 7 -11 0 -16 30 14 34 33 1 8 8 25 16 39
18 31 20 80 3 80 -6 0 -15 -5 -18 -10z"/>
<path d="M2366 3567 c3 -10 9 -15 12 -12 3 3 0 11 -7 18 -10 9 -11 8 -5 -6z"/>
<path d="M2410 3561 c0 -7 -5 -9 -11 -5 -8 5 -8 1 0 -14 17 -32 30 -35 27 -7
-3 26 -16 48 -16 26z"/>
<path d="M2210 3520 c0 -5 5 -10 11 -10 5 0 7 5 4 10 -3 6 -8 10 -11 10 -2 0
-4 -4 -4 -10z"/>
<path d="M2510 3359 c0 -6 8 -13 18 -16 10 -2 23 -13 29 -23 10 -16 9 -17 -10
-12 -20 5 -20 4 -8 -11 16 -21 41 -22 41 -3 0 8 6 16 13 19 7 3 1 9 -13 15
-14 5 -32 17 -39 26 -15 18 -31 21 -31 5z"/>
<path d="M1795 3680 c-10 -11 -13 -20 -8 -20 6 0 16 7 23 15 7 8 17 12 23 8 6
-3 7 -1 3 5 -10 17 -20 15 -41 -8z"/>
<path d="M1941 3606 c-7 -8 -8 -17 -3 -20 6 -3 12 3 15 14 6 24 4 25 -12 6z"/>
<path d="M1816 3525 c-3 -8 -1 -15 4 -15 6 0 10 7 10 15 0 8 -2 15 -4 15 -2 0
-6 -7 -10 -15z"/>
<path d="M1726 3383 c-6 -14 -5 -15 5 -6 7 7 10 15 7 18 -3 3 -9 -2 -12 -12z"/>
<path d="M3320 3411 c0 -6 4 -13 10 -16 6 -3 7 1 4 9 -7 18 -14 21 -14 7z"/>
<path d="M2175 3380 c3 -5 8 -10 11 -10 2 0 4 5 4 10 0 6 -5 10 -11 10 -5 0
-7 -4 -4 -10z"/>
<path d="M2175 3310 c-3 -5 -1 -10 4 -10 6 0 11 5 11 10 0 6 -2 10 -4 10 -3 0
-8 -4 -11 -10z"/>
<path d="M2255 3292 c-6 -4 -21 -24 -35 -44 -13 -20 -28 -34 -32 -32 -4 3 -8
-6 -8 -20 0 -17 -6 -26 -16 -26 -8 0 -12 -5 -9 -10 9 -14 34 7 46 36 4 13 18
24 31 26 13 2 23 10 24 18 2 36 5 39 22 33 15 -6 15 -5 3 10 -16 20 -13 19
-26 9z"/>
<path d="M2026 3223 c-6 -14 -5 -15 5 -6 7 7 10 15 7 18 -3 3 -9 -2 -12 -12z"/>
<path d="M2445 3009 c-4 -6 -5 -12 -2 -15 2 -3 7 2 10 11 7 17 1 20 -8 4z"/>
<path d="M2660 2940 c-9 -6 -10 -10 -3 -10 6 0 15 5 18 10 8 12 4 12 -15 0z"/>
<path d="M1935 2750 c-3 -5 -1 -10 4 -10 6 0 11 5 11 10 0 6 -2 10 -4 10 -3 0
-8 -4 -11 -10z"/>
<path d="M2420 2515 c0 -8 9 -19 21 -25 20 -11 20 -11 4 14 -20 30 -25 32 -25
11z"/>
<path d="M2246 2461 c10 -10 21 -17 23 -15 6 6 -20 34 -32 34 -6 0 -2 -8 9
-19z"/>
<path d="M2170 2445 c0 -2 10 -10 23 -16 20 -11 21 -11 8 4 -13 16 -31 23 -31
12z"/>
<path d="M2230 2405 c0 -8 4 -15 8 -15 5 0 9 7 9 15 0 8 -4 15 -9 15 -4 0 -8
-7 -8 -15z"/>
<path d="M2722 2070 c0 -14 2 -19 5 -12 2 6 2 18 0 25 -3 6 -5 1 -5 -13z"/>
<path d="M2731 2004 c0 -11 3 -14 6 -6 3 7 2 16 -1 19 -3 4 -6 -2 -5 -13z"/>
<path d="M2302 2085 c0 -11 3 -29 8 -40 11 -25 11 1 0 35 -6 20 -8 21 -8 5z"/>
<path d="M2326 2091 c-4 -7 -5 -15 -2 -18 9 -9 19 4 14 18 -4 11 -6 11 -12 0z"/>
<path d="M2321 1984 c0 -11 3 -14 6 -6 3 7 2 16 -1 19 -3 4 -6 -2 -5 -13z"/>
<path d="M3474 1671 c3 -5 15 -11 26 -14 17 -4 19 -3 9 9 -12 15 -44 20 -35 5z"/>
<path d="M3520 1372 c0 -7 -7 -9 -17 -5 -16 6 -16 5 -4 -11 13 -16 15 -16 24
-1 5 9 6 19 3 22 -3 4 -6 1 -6 -5z"/>
<path d="M3745 1310 c3 -5 11 -10 16 -10 6 0 7 5 4 10 -3 6 -11 10 -16 10 -6
0 -7 -4 -4 -10z"/>
<path d="M2361 1234 c0 -11 3 -14 6 -6 3 7 2 16 -1 19 -3 4 -6 -2 -5 -13z"/>
<path d="M1565 1089 c-4 -6 -5 -12 -2 -15 2 -3 7 2 10 11 7 17 1 20 -8 4z"/>
<path d="M2191 894 c0 -11 3 -14 6 -6 3 7 2 16 -1 19 -3 4 -6 -2 -5 -13z"/>
<path d="M3815 830 c3 -5 8 -10 11 -10 2 0 4 5 4 10 0 6 -5 10 -11 10 -5 0 -7
-4 -4 -10z"/>
<path d="M2364 4323 c-9 -10 -20 -18 -23 -19 -26 -3 -90 -26 -106 -38 -19 -15
-19 -15 5 -11 14 3 26 9 28 15 5 13 32 13 32 -1 0 -6 7 -3 16 5 8 9 19 16 23
16 13 0 55 40 49 46 -3 3 -14 -3 -24 -13z"/>
<path d="M2194 4239 c-3 -6 -27 -24 -52 -40 -32 -20 -40 -29 -26 -29 11 0 29
7 41 15 31 22 38 1 8 -23 -15 -12 -21 -23 -15 -27 5 -3 10 -1 10 5 0 6 4 9 8
6 5 -3 14 4 22 14 8 10 17 17 22 14 4 -3 16 0 25 5 17 10 17 10 -1 11 -16 0
-17 2 -5 18 12 15 11 14 -8 -1 -12 -11 -27 -16 -33 -12 -9 6 -9 10 1 15 7 5
14 16 15 24 3 19 -2 21 -12 5z"/>
<path d="M2273 4233 c-7 -2 -13 -14 -12 -26 0 -12 3 -16 6 -9 2 6 11 12 19 12
9 0 13 4 9 9 -3 5 3 12 12 14 15 4 15 5 -2 5 -11 0 -26 -2 -32 -5z"/>
<path d="M2430 4224 l-25 -15 25 7 c28 7 35 12 29 18 -2 2 -15 -2 -29 -10z"/>
<path d="M2373 4191 c-13 -11 -23 -22 -23 -25 0 -10 39 18 44 31 7 17 6 16
-21 -6z"/>
<path d="M2484 4195 c-25 -19 -14 -19 22 0 16 8 22 15 13 15 -8 0 -24 -7 -35
-15z"/>
<path d="M2052 4151 c-6 -16 -6 -34 -1 -42 8 -13 14 -5 9 16 -1 5 6 15 15 21
9 7 14 17 10 23 -11 19 -23 12 -33 -18z"/>
<path d="M2275 4150 c-4 -6 -3 -10 2 -9 4 1 10 0 13 -1 23 -9 38 -6 33 6 -6
16 -39 19 -48 4z"/>
<path d="M2202 4099 c-12 -19 -11 -19 8 -9 11 6 18 15 15 21 -8 12 -8 12 -23
-12z"/>
<path d="M2047 4083 c-5 -7 -10 -22 -12 -33 -5 -27 21 -26 36 1 6 13 7 19 1
15 -6 -3 -12 2 -14 11 -3 13 -6 15 -11 6z"/>
<path d="M2106 4038 c5 -7 2 -9 -7 -6 -8 3 -26 0 -39 -7 l-24 -13 29 2 c17 1
41 9 55 19 l24 17 -22 0 c-15 0 -21 -4 -16 -12z"/>
<path d="M2016 3992 c-3 -5 1 -9 9 -9 8 0 12 4 9 9 -3 4 -7 8 -9 8 -2 0 -6 -4
-9 -8z"/>
<path d="M2030 3942 c0 -6 -15 -19 -32 -28 -22 -12 -28 -19 -18 -22 7 -3 16 0
18 7 2 6 10 11 17 11 14 0 29 29 20 38 -3 3 -5 0 -5 -6z"/>
<path d="M2319 3923 c-13 -15 -12 -15 9 -4 23 12 28 21 13 21 -5 0 -15 -7 -22
-17z"/>
<path d="M2245 3878 l-20 -21 22 12 c23 12 40 31 26 30 -4 0 -17 -10 -28 -21z"/>
<path d="M2058 3785 c-32 -19 -58 -29 -58 -22 0 6 -7 1 -16 -11 -18 -26 -14
-35 20 -39 18 -3 26 4 36 26 7 17 15 29 19 28 3 -1 20 10 36 26 39 36 32 34
-37 -8z"/>
<path d="M2240 3788 c-46 -26 -58 -38 -31 -31 11 3 21 9 21 14 0 5 6 6 13 3 8
-3 20 2 27 11 19 23 9 25 -30 3z"/>
<path d="M2140 3650 c-8 -5 -12 -11 -9 -14 2 -3 11 -1 19 4 8 5 12 11 9 14 -2
3 -11 1 -19 -4z"/>
</g>
</svg>
